<?xml version="1.0" encoding="utf-8"?>
<!-- Generator: Adobe Illustrator 26.5.0, SVG Export Plug-In . SVG Version: 6.00 Build 0)  -->
<svg version="1.1" id="Layer_1" xmlns="http://www.w3.org/2000/svg" xmlns:xlink="http://www.w3.org/1999/xlink" x="0px" y="0px"
	 viewBox="0 0 200 160" style="enable-background:new 0 0 200 160;" xml:space="preserve">
<style type="text/css">
	.st0{fill:none;}
	.st1{fill:#FFFFFF;}
	.st2{fill:none;stroke:#030504;stroke-width:0.5;stroke-linecap:round;stroke-linejoin:round;}
	.st3{fill:none;stroke:#030504;stroke-width:0.25;stroke-linecap:round;stroke-linejoin:round;}
	.st4{fill:#4A8EB7;}
	.st5{fill:#7EBBDF;}
	.st6{fill:#0C65A2;}
	.st7{fill:#8C9DA7;}
	.st8{fill:#CED0D2;}
	.st9{fill:#ABB5BB;}
	.st10{fill:none;stroke:#1A1818;stroke-width:0.25;stroke-miterlimit:10;}
	.st11{fill:none;stroke:#1A1818;stroke-width:0.5;stroke-miterlimit:10;}
</style>
<g id="Group_1699">
	<rect id="Rectangle_7140" class="st0" width="200" height="160"/>
	<g id="Group_1686">
		<path id="Path_4583" class="st1" d="M187.7,108l-2.4,1.2l-2.5-0.8v-2l-7.2-2.3l-2.4,1.2l-2.5-0.8v-1.9l-7.2-2.3l-2.2,1.1l-2.6-0.8
			v-2l-7.2-2.3l-2.3,1.1l-2.5-0.8v-2l-7.2-2.3L81.2,121v13.5l7.2,2.3l8.2-4l3.8,1.3l1.5,5.6v1.5l12.6,4.2l7.8-3.8l5.5,1.8l1.5,5v1.9
			l7.2,2.4l58.5-27.9v-14.3L187.7,108L187.7,108z M156.5,111.5l0.9,0.3l-13.4,6.6l-0.9-0.3L156.5,111.5z M137.4,101.1v2.1l-16.1,8.2
			l-2.5-0.8L137.4,101.1L137.4,101.1z M93.5,124.8L91,124l18.1-8.7v2.1L93.5,124.8L93.5,124.8z M105.6,128.8l-0.7-0.2l13.6-6.7
			l0.8,0.2L105.6,128.8L105.6,128.8z M116,132.3l-0.9-0.3l13.6-6.7l0.8,0.3L116,132.3z M133.3,115.3l-0.8-0.3l13.6-6.8l0.8,0.3
			L133.3,115.3L133.3,115.3z M139,144.4v-4.1v-0.4l13.1-6.5l5.4,1.8L139,144.4L139,144.4z M166.9,130.8v-4.4l13.2-6.7l5.2,1.9
			L166.9,130.8L166.9,130.8z"/>
		<g id="Group_1108">
			<path id="Path_3613" class="st2" d="M132.8,114.8l13.7-6.7"/>
			<path id="Path_3613-2" class="st2" d="M104.9,128.6l13.7-6.7"/>
			<path id="Path_3613-3" class="st2" d="M81.2,132.4v2l7.2,2.3l8.2-4"/>
			<path id="Path_3614" class="st3" d="M94.2,131.9L90,134"/>
		</g>
		<line id="Line_47" class="st3" x1="88.4" y1="134.8" x2="88.4" y2="136.8"/>
		<path id="Path_3613-2-2" class="st2" d="M101.8,139.6v1.5l5.8,1.9"/>
		<path id="Path_3613-2-3" class="st2" d="M129.5,125.6l-13.5,6.7"/>
		<path id="Path_3613-2-4" class="st2" d="M157.4,111.8l-13.5,6.7"/>
		<path id="Path_3613-3-2" class="st2" d="M107.6,141.6v1.5l6.8,2.3l7.8-3.8"/>
		<path id="Path_3614-3" class="st3" d="M120.3,140.9l-4.4,2.2"/>
		<line id="Line_47-3" class="st3" x1="114.4" y1="143.8" x2="114.4" y2="145.3"/>
		<g id="Group_1108-4">
			<path id="Path_3613-4" class="st2" d="M129.2,148.4v1.9l7.2,2.4l58.5-27.9v-2"/>
			<path id="Path_3613-4-2" class="st2" d="M157.4,135.3l-18.4,9.1"/>
			<path id="Path_3613-4-3" class="st2" d="M185.4,121.5l-18.5,9.1"/>
			<path id="Path_3614-4" class="st3" d="M194.8,122.6l-58.4,28.2l-7.2-2.5"/>
		</g>
		<line id="Line_41" class="st3" x1="88.4" y1="134.7" x2="88.4" y2="136.7"/>
		<path id="Path_3597" class="st2" d="M81.2,123v9.4l7.2,2.4l1.7-0.8l0.5-3.3"/>
		<path id="Path_3597-2" class="st2" d="M93.5,124.8L91,124"/>
		<path id="Path_3597-3" class="st2" d="M105.6,128.8L103,128"/>
		<path id="Path_3597-4" class="st2" d="M117.5,132.8l-2.4-0.8"/>
		<path id="Path_3597-5" class="st2" d="M129.5,136.8l-2.5-0.8"/>
		<path id="Path_3597-6" class="st2" d="M90.6,130.7l9.8,3.3l1.5,5.6l12.5,4.2l1.7-0.8l0.5-3.4l11.2,3.7l1.5,5l7.2,2.5l2.6-1.3v-9.6
			"/>
		<path id="Path_3598" class="st3" d="M81.2,123l55.2,18.3v11.3"/>
		<path id="Path_3600" class="st2" d="M121.4,111l-2.5-0.8"/>
		<path id="Path_3600-2" class="st2" d="M133.5,115l-2.5-0.8"/>
		<path id="Path_3600-3" class="st2" d="M145.4,119l-2.4-0.8"/>
		<path id="Path_3600-4" class="st2" d="M157.4,123l-2.4-0.8"/>
		<path id="Path_3600-5" class="st2" d="M152.1,133.4l12.1,3.9l2.6-1.3v-9.7"/>
		<path id="Path_3600-6" class="st2" d="M140.3,129.4l2.4,0.8"/>
		<path id="Path_3600-7" class="st2" d="M128.6,125.3l2.3,0.8"/>
		<path id="Path_3600-8" class="st2" d="M116.7,121.2l2.5,0.9"/>
		<path id="Path_3601" class="st3" d="M164.3,127.5v9.9"/>
		<path id="Path_3601-2" class="st3" d="M152.2,123.5l2.5,0.8"/>
		<path id="Path_3601-3" class="st3" d="M140.3,119.5l2.4,0.8"/>
		<path id="Path_3601-4" class="st3" d="M128.3,115.5l2.5,0.8"/>
		<path id="Path_3601-5" class="st3" d="M116.2,111.5l2.5,0.8"/>
		<path id="Path_3606" class="st2" d="M149.4,97.2l-2.5-0.8"/>
		<path id="Path_3606-2" class="st2" d="M161.4,101.2l-2.6-0.9"/>
		<path id="Path_3606-3" class="st2" d="M173.3,105.2l-2.5-0.8"/>
		<path id="Path_3606-4" class="st2" d="M185.3,109.2l-2.5-0.8"/>
		<path id="Path_3606-5" class="st2" d="M180.1,119.7l12.1,4.2l2.6-1.4v-10.2"/>
		<path id="Path_3606-6" class="st2" d="M168.2,115.6l2.4,0.8"/>
		<path id="Path_3606-7" class="st2" d="M156.5,111.5l2.3,0.8"/>
		<path id="Path_3606-8" class="st2" d="M144.6,107.4l2.5,0.9"/>
		<path id="Path_3607" class="st3" d="M192.1,113.7v10.2"/>
		<path id="Path_3607-2" class="st3" d="M180.1,109.7l2.5,0.8"/>
		<path id="Path_3607-3" class="st3" d="M168.2,105.8l2.4,0.8"/>
		<path id="Path_3607-4" class="st3" d="M156.2,101.7l2.5,0.8"/>
		<path id="Path_3607-5" class="st3" d="M144.1,97.7l2.5,0.8"/>
		<line id="Line_43" class="st3" x1="88.4" y1="123.3" x2="88.4" y2="125.3"/>
		<line id="Line_44" class="st3" x1="100.4" y1="127.3" x2="100.4" y2="129.3"/>
		<line id="Line_45" class="st3" x1="112.4" y1="131.3" x2="112.4" y2="133.3"/>
		<line id="Line_46" class="st3" x1="124.4" y1="135.3" x2="124.4" y2="137.2"/>
		<path id="Path_3613-5" class="st2" d="M194.9,110.4l-7.2-2.3l-58.5,28.9v2l7.2,2.3l58.5-28.9C194.9,112.4,194.9,110.4,194.9,110.4
			z"/>
		<path id="Path_3614-5" class="st3" d="M194.8,110.3l-58.4,29l-7.2-2.3"/>
		<line id="Line_47-5" class="st3" x1="136.4" y1="139.2" x2="136.4" y2="141.2"/>
		<path id="Path_3613-6" class="st2" d="M182.9,106.4l-7.2-2.3l-58.5,28.9v2l7.2,2.3l58.5-28.9C182.9,108.4,182.9,106.4,182.9,106.4
			z"/>
		<path id="Path_3614-6" class="st3" d="M182.8,106.3l-58.4,29l-7.2-2.3"/>
		<line id="Line_47-6" class="st3" x1="124.4" y1="135.3" x2="124.4" y2="137.2"/>
		<path id="Path_3613-7" class="st2" d="M170.8,102.5l-7.2-2.3L105.2,129v2l7.2,2.3l58.5-28.9V102.5L170.8,102.5z"/>
		<path id="Path_3614-7" class="st3" d="M170.8,102.4l-58.4,29l-7.2-2.3"/>
		<line id="Line_47-7" class="st3" x1="112.3" y1="131.4" x2="112.3" y2="133.4"/>
		<path id="Path_3613-8" class="st2" d="M158.9,98.4l-7.2-2.3L93.2,125v2l7.2,2.3l58.5-28.9V98.4z"/>
		<path id="Path_3614-8" class="st3" d="M158.8,98.3l-58.4,29l-7.2-2.3"/>
		<line id="Line_47-8" class="st3" x1="100.4" y1="127.3" x2="100.4" y2="129.3"/>
		<path id="Path_3613-9" class="st2" d="M146.9,94.4l-7.2-2.3L81.2,121v2l7.2,2.3l58.5-28.9V94.4L146.9,94.4z"/>
		<path id="Path_3614-9" class="st3" d="M146.8,94.3l-58.4,29l-7.2-2.3"/>
		<line id="Line_47-9" class="st3" x1="88.4" y1="123.3" x2="88.4" y2="125.3"/>
		<line id="Line_49" class="st0" x1="89.1" y1="130.2" x2="90.6" y2="130.7"/>
		<line id="Line_50" class="st2" x1="89.1" y1="130.2" x2="90.6" y2="130.7"/>
		<line id="Line_51" class="st3" x1="88.4" y1="134.9" x2="89.1" y2="130.2"/>
		<line id="Line_52" class="st0" x1="115" y1="139.1" x2="116.5" y2="139.6"/>
		<line id="Line_53" class="st2" x1="115" y1="139.1" x2="116.5" y2="139.6"/>
		<line id="Line_54" class="st3" x1="114.4" y1="143.8" x2="114.9" y2="139.1"/>
		<line id="Line_126" class="st2" x1="137.4" y1="101.1" x2="137.4" y2="103.2"/>
		<line id="Line_127" class="st2" x1="109.1" y1="115.1" x2="109.1" y2="117.1"/>
	</g>
	<g id="Group_1689">
		<g id="Group_987-2-2">
			<path id="Path_3704-2-2" class="st4" d="M136.9,97.1v18.9l-21.9-7.3v-19C115.1,89.8,136.9,97.1,136.9,97.1z"/>
		</g>
		<g id="Group_992-2-2">
			<g id="Group_991-2-2">
				<g id="Group_1687">
					<g id="Group_990-2-2">
						<path id="Path_3705-2-2" class="st5" d="M115.1,89.8l24.9-12.2l21.9,7.4l-24.9,12.2L115.1,89.8L115.1,89.8z"/>
					</g>
				</g>
			</g>
		</g>
		<path id="Path_3706-2-2" class="st6" d="M136.9,97.1v18.9l24.9-12.2V84.9L136.9,97.1z"/>
		<g id="Group_996-2-2">
			<g id="Group_1688">
				<g id="Group_995-2-2">
					<path id="Path_3707-2-2" class="st2" d="M139.9,77.6l-24.9,12.2v19l21.9,7.3l24.9-12.2V84.9L139.9,77.6L139.9,77.6z"/>
				</g>
			</g>
		</g>
		<line id="Line_128" class="st3" x1="115.1" y1="89.8" x2="136.9" y2="97.1"/>
		<line id="Line_129" class="st3" x1="161.8" y1="84.9" x2="136.9" y2="97.1"/>
		<line id="Line_130" class="st3" x1="136.9" y1="116.1" x2="136.9" y2="97.1"/>
	</g>
	<g id="Group_1689-2">
		<g id="Group_987-2-2-2">
			<path id="Path_3704-2-2-2" class="st4" d="M100.1,102V121l-21.9-7.3v-19C78.3,94.7,100.1,102,100.1,102z"/>
		</g>
		<g id="Group_992-2-2-2">
			<g id="Group_991-2-2-2">
				<g id="Group_1687-2">
					<g id="Group_990-2-2-2">
						<path id="Path_3705-2-2-2" class="st5" d="M78.3,94.7l24.9-12.2l21.9,7.4L100.1,102L78.3,94.7L78.3,94.7z"/>
					</g>
				</g>
			</g>
		</g>
		<path id="Path_3706-2-2-2" class="st6" d="M100.1,102V121l24.9-12.2V89.9L100.1,102z"/>
		<g id="Group_996-2-2-2">
			<g id="Group_1688-2">
				<g id="Group_995-2-2-2">
					<path id="Path_3707-2-2-2" class="st2" d="M103.1,82.5L78.3,94.7v19l21.9,7.3l24.9-12.2V89.9L103.1,82.5L103.1,82.5z"/>
				</g>
			</g>
		</g>
		<line id="Line_128-2" class="st3" x1="78.3" y1="94.7" x2="100.1" y2="102"/>
		<line id="Line_129-2" class="st3" x1="125" y1="89.9" x2="100.1" y2="102"/>
		<line id="Line_130-2" class="st3" x1="100.1" y1="121" x2="100.1" y2="102"/>
	</g>
	<g id="Group_1692">
		<g id="Group_987-2-3">
			<path id="Path_3704-2-3" class="st4" d="M158.6,104.7v18.9l-21.9-7.3v-19C136.8,97.4,158.6,104.7,158.6,104.7z"/>
		</g>
		<g id="Group_992-2-3">
			<g id="Group_991-2-3">
				<g id="Group_1690">
					<g id="Group_990-2-3">
						<path id="Path_3705-2-3" class="st5" d="M136.8,97.3l24.9-12.2l21.9,7.4l-24.9,12.2L136.8,97.3L136.8,97.3z"/>
					</g>
				</g>
			</g>
		</g>
		<path id="Path_3706-2-3" class="st6" d="M158.6,104.7v18.9l24.9-12.2V92.5L158.6,104.7z"/>
		<g id="Group_996-2-3">
			<g id="Group_1691">
				<g id="Group_995-2-3">
					<path id="Path_3707-2-3" class="st2" d="M161.6,85.1l-24.9,12.2v19l21.9,7.3l24.9-12.2V92.5L161.6,85.1z"/>
				</g>
			</g>
		</g>
		<line id="Line_131" class="st3" x1="136.8" y1="97.4" x2="158.6" y2="104.7"/>
		<line id="Line_132" class="st3" x1="183.5" y1="92.5" x2="158.6" y2="104.7"/>
		<line id="Line_133" class="st3" x1="158.6" y1="123.6" x2="158.6" y2="104.7"/>
	</g>
	<g id="Group_1695">
		<g id="Group_987-2-4">
			<path id="Path_3704-2-4" class="st4" d="M133.8,116.8v18.9l-21.9-7.3v-18.9C111.9,109.6,133.8,116.8,133.8,116.8z"/>
		</g>
		<g id="Group_992-2-4">
			<g id="Group_991-2-4">
				<g id="Group_1693">
					<g id="Group_990-2-4">
						<path id="Path_3705-2-4" class="st5" d="M111.9,109.5l24.9-12.2l21.9,7.4l-24.9,12.2L111.9,109.5L111.9,109.5L111.9,109.5z"/>
					</g>
				</g>
			</g>
		</g>
		<path id="Path_3706-2-4" class="st6" d="M133.8,116.8v18.9l24.9-12.2v-18.9L133.8,116.8z"/>
		<g id="Group_996-2-4">
			<g id="Group_1694">
				<g id="Group_995-2-4">
					<path id="Path_3707-2-4" class="st2" d="M136.8,97.3l-24.9,12.2v19l21.9,7.3l24.9-12.2v-18.9L136.8,97.3L136.8,97.3z"/>
				</g>
			</g>
		</g>
		<line id="Line_134" class="st3" x1="111.9" y1="109.6" x2="133.8" y2="116.8"/>
		<line id="Line_135" class="st3" x1="158.6" y1="104.7" x2="133.8" y2="116.8"/>
		<line id="Line_136" class="st3" x1="133.8" y1="135.8" x2="133.8" y2="116.8"/>
	</g>
	<g id="Group_1698">
		<g id="Group_1696">
			<path id="Path_4584" class="st7" d="M110.4,70.8c-0.1,0.3-0.1,0.6-0.1,0.9v5.7c0,0,0,0.1,0,0.1c-0.2,0.9-3.9,1.6-8.4,1.6
				s-8.4-0.8-8.4-1.7c-0.6-1-1.2-1.9-1.9-2.8c1.8,0.9,3.8,1.1,5.7,0.6c2.5,0.2,5-0.7,6.9-2.4h0c1.4-0.6,2.5-1.6,3.4-2.8
				c2.7-3.7,1.9-8.8-1.8-11.5c-2.1-1.5-6.3-1.6-8.7-0.5c-0.7,0.1-1.4,0.4-2.1,0.7c-1.2-0.8-2.7-1.8-4.3-2.8
				c0.9-3.8,6.7-4.5,10.8-4.4s8,0.8,9.1,1.7c1.2,1.3,2.2,2.8,2.9,4.5c0.5,1.1-0.7,3,0,4.2C115,64.4,113.8,69,110.4,70.8L110.4,70.8z
				"/>
			<path id="Path_4585" class="st7" d="M109.4,92.9c-0.3,0.1-0.7,0.2-1.1,0.3c-0.9,0.2-1.8,0.3-2.7,0.4c-1.1,0.1-2.1,0.2-3.2,0.2
				c-0.2,0-0.4,0-0.6,0c-0.3,0-0.7,0-1.1,0c-1.1,0-2.2-0.1-3.3-0.3c-0.8-0.1-1.7-0.3-2.5-0.4c-0.4-0.1-0.7-0.2-1.1-0.3
				c-1.2-0.3-2.2-0.8-3.1-1.7c-0.2-0.2-0.3-0.5-0.3-0.8v-2.2c0,1.9,5,3.5,11.2,3.5s11.2-1.6,11.2-3.5v2.2c0,0.4-0.2,0.8-0.5,1.1
				C111.7,92.2,110.6,92.7,109.4,92.9L109.4,92.9z"/>
			<path id="Path_4586" class="st7" d="M112.6,91.4c0.3,0.3,0.4,0.7,0.5,1.1c0,0.4-0.9,0.7-2,0.7c-0.6,0-1.1-0.1-1.6-0.3
				C110.6,92.7,111.7,92.2,112.6,91.4L112.6,91.4z"/>
			<path id="Path_4587" class="st7" d="M109.6,88.2v-2.6c2.2,0.6,3.6,1.6,3.6,2.6c0,1.9-5,3.5-11.2,3.5s-11.2-1.6-11.2-3.5
				c0-1,1.4-1.9,3.5-2.6v2.6c0,1,3.4,1.8,7.7,1.8S109.5,89.2,109.6,88.2L109.6,88.2z"/>
			<path id="Path_4588" class="st7" d="M109.6,85.6v2.6c0,1-3.4,1.8-7.7,1.8s-7.7-0.8-7.7-1.8v-7.4c0-0.9-0.7-1.8-0.7-3.3
				c0,0.9,3.8,1.7,8.4,1.7s8.2-0.7,8.4-1.6c0,1-0.7,2-0.7,3L109.6,85.6L109.6,85.6z"/>
			<path id="Path_4589" class="st7" d="M108.4,93.2c0.6,0.3,0.9,0.9,1,1.5c0,0.4-0.9,0.7-2,0.7s-2-0.3-2-0.7c0-0.4,0.2-0.8,0.4-1.1
				C106.6,93.6,107.5,93.4,108.4,93.2L108.4,93.2L108.4,93.2z"/>
			<path id="Path_4590" class="st7" d="M105.7,58.4c3.7,2.7,4.5,7.8,1.8,11.5c-0.9,1.2-2,2.2-3.4,2.8c0.4-0.4,0.8-0.9,1.2-1.3
				c2.8-3.9,2-9.4-1.9-12.2c0,0,0,0,0,0c-1.8-1.2-4.1-1.7-6.3-1.2C99.4,56.8,103.7,57,105.7,58.4z"/>
			<path id="Path_4591" class="st7" d="M103.3,59.1c3.9,2.8,4.8,8.3,1.9,12.2c0,0,0,0,0,0c-0.3,0.5-0.7,0.9-1.2,1.3h0
				c-1.8,1.8-4.3,2.6-6.9,2.4c1.7-0.5,3.2-1.6,4.2-3c2.5-3.5,1.8-8.3-1.7-10.8l0,0c-0.5-0.4-1.1-0.7-1.7-0.9
				c-0.6-0.2-1.2-0.5-1.8-0.9c-0.3-0.2-0.8-0.5-1.2-0.8c0.6-0.4,1.3-0.6,2.1-0.7C99.2,57.4,101.5,57.9,103.3,59.1L103.3,59.1z"/>
			<path id="Path_4592" class="st7" d="M102.5,93.8c0.7,0.2,1.1,0.9,1.2,1.6c0,0.4-0.9,0.7-2,0.7s-2-0.3-2-0.7
				c0-0.7,0.5-1.4,1.2-1.6c0.3,0,0.7,0,1.1,0C102.1,93.9,102.3,93.9,102.5,93.8L102.5,93.8z"/>
			<path id="Path_4593" class="st8" d="M95,58.6c0.5,0.3,0.9,0.6,1.2,0.8c0.6,0.4,1.2,0.7,1.8,0.9c0.6,0.2,1.2,0.5,1.7,0.9
				c3.5,2.5,4.2,7.4,1.7,10.8l0,0c-1,1.4-2.5,2.5-4.2,3c-1.9,0.6-4,0.4-5.7-0.6h0c-0.3-0.2-0.6-0.3-0.8-0.5
				c-0.7-0.5-1.3-1.2-1.8-1.9c-0.3-0.5-0.8-1-1.2-1.4c-1.7-1.5-5.4-4.9-7.4-6.9c-1.1-1-1.9-2.3-2.3-3.8c-0.4-1.7-0.1-3.5,0.9-4.9
				c1.7-2.4,4.8-3.2,7.5-2.1c0.4,0.2,0.8,0.3,1.1,0.5c1,0.6,2.2,1.4,3.4,2.1C92.2,56.8,93.8,57.8,95,58.6L95,58.6z M100.1,71.1
				c1.9-2.8,1.1-6.5-1.6-8.4s-6.5-1.1-8.4,1.6c-1.8,2.7-1.2,6.4,1.5,8.3C94.4,74.6,98.2,73.9,100.1,71.1L100.1,71.1L100.1,71.1z"/>
			<path id="Path_4594" class="st8" d="M98.8,62.6c2.8,1.9,3.6,5.7,1.7,8.6s-5.7,3.6-8.6,1.7s-3.6-5.7-1.7-8.6c0,0,0.1-0.1,0.1-0.1
				C92.2,61.4,96,60.7,98.8,62.6L98.8,62.6z"/>
			<path id="Path_4595" class="st7" d="M97.5,93.6c0.3,0.3,0.5,0.7,0.5,1.1c0,0.4-0.9,0.7-2,0.7s-2-0.3-2-0.7c0-0.7,0.4-1.3,1.1-1.6
				l0,0C95.9,93.3,96.7,93.5,97.5,93.6z"/>
			<path id="Path_4596" class="st7" d="M90.9,91.2c0.8,0.8,1.9,1.4,3.1,1.7c-0.6,0.2-1.2,0.4-1.8,0.3c-1.1,0-2-0.3-2-0.7
				C90.2,92,90.5,91.5,90.9,91.2L90.9,91.2z"/>
			<path id="Path_4597" class="st8" d="M86.2,53.1c-2.7-1.1-5.8-0.2-7.5,2.1c-1,1.4-1.3,3.2-0.9,4.9l-0.2,0
				C70.2,52.9,63.3,47,58.2,43.7c-4.7-3-7.9-4.1-10.6-6.1c-1.5-1.1-4.9-3.5-7.6-5.4c0,0,0,0,0,0c-2-1.6-1.2-6.1,2-10.2
				c3.2-4,7.3-5.8,9.4-4.2c0,0,0,0,0,0c1.2,0.9,2.2,1.7,3.2,2.5c5.9,4.8,7.9,9.1,12.7,14.5C73,41.6,79.3,47.7,86.2,53.1L86.2,53.1z"
				/>
			<path id="Path_4598" class="st8" d="M64.4,97.2c0,5.2-3.4,8.3-3.4,13.5c0,2.2-6.8,4.1-12.4,4.1c-2.3,0.1-4.7-0.1-7-0.4
				c1.3-0.4,2.6-1,3.7-1.9c0.4-0.1,0.8-0.3,1.2-0.5v0c5.8-2.4,8.5-9.4,6.1-16.7s-9.7-11.7-15.5-9.8c5.6-2.7,12.1-2.7,17.7,0
				C60.7,88.6,64.4,93.4,64.4,97.2L64.4,97.2z"/>
			<path id="Path_4599" class="st8" d="M61.1,113.9c0,2.2-5.5,4.1-12.4,4.1s-12.3-1.4-12.3-2.6h0c0-0.1,0-0.2,0-0.3
				c1.8,0,3.6-0.2,5.3-0.7c2.3,0.3,4.7,0.5,7,0.4c5.5,0,12.4-1.9,12.4-4.1V113.9L61.1,113.9L61.1,113.9z"/>
			<path id="Path_4600" class="st9" d="M52.8,95.3c2.4,7.3-0.3,14.3-6.1,16.7v0c4.9-2.6,7.1-9.5,4.9-16.3
				c-2.3-7.1-8.6-11.5-14.3-10.1C43.1,83.7,50.4,88,52.8,95.3z"/>
			<path id="Path_4601" class="st8" d="M28.7,28.6c-5.7,20.3-2.9,41.9,8.7,57c5.7-1.3,11.9,3.1,14.3,10.1c2.2,6.8,0,13.7-4.9,16.3
				c-0.4,0.2-0.8,0.4-1.2,0.5c-1.1,0.8-2.4,1.5-3.7,1.9c-1.7,0.5-3.5,0.7-5.3,0.7c-1.3,0-2.7-0.1-4-0.3c0.4-0.1,0.7-0.2,1.1-0.3
				c5-1.8,7.2-8.3,5-14.6s-8-10-13-8.2c-3.1,1.1-5.1,4-5.7,7.5c0.1-1.9-0.2-3.7-1.2-5.4C9,70.3,5.4,47.7,12,25.6
				c0.5-1.1,0.7-2.4,0.5-3.6c0.9,3.6,3.3,6.2,6.2,6.2c3.6,0,6.4-4.1,6.3-9.1s-3-9-6.6-8.9c-0.4,0-0.7,0.1-1.1,0.1l-0.1-0.1
				c0.2-0.1,0.3-0.2,0.4-0.4c1.9-2.8,5.1-4.6,8.5-4.7c0.4,0,0.7,0,1.1,0c1,0,1.9,0.1,2.9,0.4c-0.1,0-0.2,0.1-0.4,0.1l0,0.1
				c4.3,1.5,7.4,6.3,7.4,12.1S34.1,29.1,30,29.1C29.6,29,29.1,28.8,28.7,28.6L28.7,28.6z"/>
			<path id="Path_4602" class="st8" d="M50.2,17c0.3,0.3,0.7,0.6,1,0.8c-2.1-1.6-6.2,0.2-9.4,4.2c-3.2,4-4,8.5-2,10.2
				c-0.4-0.3-0.8-0.6-1.2-0.8c-2-1.7-1-6.1,2.1-10.2C44,17.1,48.2,15.4,50.2,17z"/>
			<path id="Path_4603" class="st8" d="M45,12c1.6,1.8,3.3,3.5,5.2,4.9c-2.1-1.6-6.2,0.1-9.4,4.2c-3.2,4-4.1,8.5-2.1,10.2l-2.6-1.8
				c-1.5,0.3-3.1,0.3-4.6,0l0-0.1c4,0,7.3-5.7,7.3-11.2c0-6.1-3.5-11.4-8.2-12.6c1.2-0.3,2.4-0.4,3.6-0.4c2.5,0,4.9,0.8,6.8,2.3
				C42.7,8.6,44.1,10.2,45,12L45,12L45,12z"/>
			<path id="Path_4604" class="st8" d="M70.4,130.9v-1c0-0.1-0.6-0.3-1.3-0.3c-0.3,0-0.6,0-0.9,0.1l-0.2,0c-1.4-3.7-5.3-5.3-6.3-9.2
				c-0.5-2.1-0.6-7.5-0.6-9.7v3c0,2.2-5.5,4.1-12.4,4.1s-12.3-1.4-12.3-2.6h0c-0.3,2-1,4-2,5.8c-1.9,3.2-4.6,5.3-5.9,8.7l-0.1,0
				c-0.1,0-0.2,0-0.3,0c-0.7,0-1.3,0.1-1.3,0.3v1c0,0.5-1.1,0.6-1.1,1.4v2.2l21.6,8.1c0.6,0.2,1.2,0.2,1.9,0.1l21.8-8.6v-2.3
				C71,131.4,70.4,131.6,70.4,130.9L70.4,130.9z"/>
			<path id="Path_4605" class="st9" d="M38.5,100c2.2,6.3,0,12.8-5,14.6c-0.3,0.1-0.7,0.2-1.1,0.3c-4.6,0.9-9.8-2.5-12-8.5
				c-0.8-2.2-1-4.6-0.7-6.9c0-0.1,0-0.1,0-0.2c0.6-3.5,2.6-6.4,5.7-7.5C30.5,90,36.3,93.7,38.5,100z"/>
			<path id="Path_4606" class="st9" d="M30.3,5.6c0.1,0,0.2-0.1,0.3-0.1l0,0c4.7,1.2,8.2,6.5,8.2,12.6c0,5.6-3.3,11.2-7.3,11.2
				l0,0.1c-0.5-0.1-1-0.2-1.4-0.4c4,0,7.3-5.7,7.3-11.2S34.2,7.3,29.9,5.8l0-0.1C30.1,5.7,30.2,5.7,30.3,5.6L30.3,5.6z"/>
			<path id="Path_4607" class="st8" d="M34.4,121.2c-1.9,3.2-4.6,5.3-5.9,8.7l-0.1,0C28.5,124.8,29.9,121.8,34.4,121.2z"/>
			<path id="Path_4608" class="st9" d="M25.2,19.2c0.1,5-2.8,9.1-6.3,9.1c-2.9,0-5.4-2.6-6.2-6.2c0-0.1,0-0.2-0.1-0.3
				c-0.2-0.8-0.3-1.6-0.3-2.5c-0.1-4.2,1.9-7.7,4.7-8.8c0.2-0.1,0.3-0.2,0.5-0.3l0.1,0.1c0.4-0.1,0.7-0.1,1.1-0.1
				C22.2,10.2,25.1,14.2,25.2,19.2L25.2,19.2z"/>
		</g>
		<path id="Path_4609" class="st10" d="M19.8,99.4c0-0.1,0-0.1,0-0.2c0.6-3.5,2.6-6.4,5.7-7.5c5-1.8,10.8,1.9,13,8.2s0,12.8-5,14.6
			c-0.3,0.1-0.7,0.2-1.1,0.3"/>
		<path id="Path_4610" class="st10" d="M37.3,85.6c5.8-1.9,13.1,2.5,15.5,9.8s-0.3,14.3-6.1,16.7"/>
		<path id="Path_4611" class="st10" d="M36.5,85.8c0.3-0.1,0.5-0.2,0.8-0.2c5.7-1.3,11.9,3.1,14.3,10.1c2.2,6.8,0,13.7-4.9,16.3
			c-0.4,0.2-0.8,0.4-1.2,0.5c-0.1,0-0.2,0.1-0.2,0.1"/>
		<path id="Path_4612" class="st7" d="M100.1,71.1c-2,2.7-5.8,3.2-8.4,1.2c-2.7-2-3.2-5.8-1.2-8.4c2-2.6,5.7-3.2,8.3-1.3
			C101.5,64.6,102.1,68.4,100.1,71.1L100.1,71.1z"/>
		<path id="Path_4613" class="st10" d="M100.1,71.1c-2,2.7-5.8,3.2-8.4,1.2c-2.7-2-3.2-5.8-1.2-8.4c2-2.6,5.7-3.2,8.3-1.3
			C101.5,64.6,102.1,68.4,100.1,71.1L100.1,71.1z"/>
		<path id="Path_4614" class="st11" d="M91.5,74.6c1.8,0.9,3.8,1.1,5.7,0.6c1.7-0.5,3.2-1.6,4.2-3c2.5-3.5,1.8-8.3-1.7-10.8l0,0
			c-0.5-0.4-1.1-0.7-1.7-0.9c-0.6-0.2-1.2-0.5-1.8-0.9c-0.3-0.2-0.8-0.5-1.2-0.8c-1.2-0.8-2.7-1.8-4.3-2.8c-1.2-0.8-2.4-1.5-3.4-2.1
			c-0.3-0.2-0.7-0.4-1.1-0.5c-2.7-1.1-5.8-0.2-7.5,2.1c-1,1.4-1.3,3.2-0.9,4.9c0.4,1.4,1.2,2.7,2.3,3.8c2,1.9,5.8,5.4,7.4,6.9
			c0.5,0.4,0.9,0.9,1.2,1.4c0.5,0.7,1.1,1.4,1.8,1.9C90.9,74.2,91.2,74.4,91.5,74.6"/>
		<path id="Path_4615" class="st10" d="M104.1,72.7c-1.8,1.8-4.3,2.6-6.9,2.4c0,0-0.1,0-0.1,0"/>
		<path id="Path_4616" class="st10" d="M95,58.6L95,58.6c0.7-0.4,1.3-0.6,2.1-0.7c2.2-0.4,4.4,0,6.3,1.2c3.9,2.8,4.8,8.3,1.9,12.2
			c0,0,0,0,0,0c-0.3,0.5-0.7,0.9-1.2,1.3"/>
		<path id="Path_4617" class="st10" d="M97.1,57.9c2.3-1.1,6.6-0.9,8.7,0.5c3.7,2.7,4.5,7.8,1.8,11.5c-0.9,1.2-2,2.2-3.4,2.8h0"/>
		<path id="Path_4618" class="st10" d="M38.8,31.4C38.8,31.4,38.7,31.4,38.8,31.4c-2-1.7-1.1-6.2,2.1-10.2c3.2-4.1,7.3-5.8,9.4-4.2"
			/>
		<path id="Path_4619" class="st10" d="M39.9,32.2c-2-1.6-1.2-6.1,2-10.2c3.2-4,7.3-5.8,9.4-4.2"/>
		<path id="Path_4620" class="st10" d="M17.5,10.4c0.4-0.1,0.7-0.1,1.1-0.1c3.6,0,6.5,4,6.6,8.9s-2.8,9-6.3,9.1
			c-2.9,0-5.4-2.6-6.2-6.2"/>
		<path id="Path_4621" class="st11" d="M19.8,99.3c0.1-1.9-0.2-3.7-1.2-5.4C9,70.3,5.4,47.7,12,25.6c0.5-1.1,0.7-2.4,0.5-3.6
			c0-0.1,0-0.2-0.1-0.3"/>
		<path id="Path_4622" class="st11" d="M37.3,85.6c-11.6-15.1-14.3-36.7-8.7-57c0.3-1.2,0.7-2.3,1-3.5"/>
		<path id="Path_4623" class="st10" d="M61.1,110.7c0,2.2-6.8,4.1-12.4,4.1c-2.3,0.1-4.7-0.1-7-0.4c0,0-0.1,0-0.2,0"/>
		<path id="Path_4624" class="st11" d="M61.1,110.7c0-5.2,3.4-8.3,3.4-13.5c0-3.9-3.7-8.6-9.5-11.6c-5.6-2.7-12.1-2.7-17.6,0"/>
		<path id="Path_4625" class="st10" d="M61.1,110.9v3c0,2.2-5.5,4.1-12.4,4.1s-12.3-1.4-12.3-2.6"/>
		<path id="Path_4626" class="st11" d="M61.1,110.7v0.2c0,2.2,0.1,7.5,0.6,9.7c1,3.8,4.9,5.5,6.3,9.2c0.4,0.9,0.5,1.9,0.5,2.9"/>
		<path id="Path_4627" class="st10" d="M34.4,121.2c-1.9,3.2-4.6,5.3-5.9,8.7c-0.5,1.2-0.7,2.6-0.7,3.9"/>
		<path id="Path_4628" class="st11" d="M68.2,129.7c0.3-0.1,0.6-0.1,0.9-0.1c0.7,0,1.3,0.1,1.3,0.3"/>
		<path id="Path_4629" class="st11" d="M26.9,130.2c0-0.1,0.6-0.3,1.3-0.3c0.1,0,0.2,0,0.3,0"/>
		<path id="Path_4630" class="st11" d="M26.9,130.2v1c0,0.5-1.1,0.6-1.1,1.4v2.2l21.6,8.1c0.6,0.2,1.2,0.2,1.9,0.1l21.8-8.6v-2.3
			c0-0.7-0.6-0.6-0.6-1.2v-1"/>
		<path id="Path_4631" class="st11" d="M77.7,60.2C70.2,52.9,63.3,47,58.2,43.7c-4.7-3-7.9-4.1-10.6-6.1c-1.5-1.1-4.9-3.5-7.6-5.4
			c0,0,0,0,0,0c-0.4-0.3-0.8-0.6-1.2-0.8l-2.6-1.8c-1.5,0.3-3.1,0.3-4.6,0c-0.5-0.1-1-0.2-1.4-0.4c-0.5-0.1-0.9-0.3-1.4-0.5
			c-0.1,0-0.1-0.1-0.2-0.1"/>
		<path id="Path_4632" class="st11" d="M30.4,5.7c0,0-0.1,0-0.1,0c-0.9-0.3-1.9-0.4-2.9-0.4c-0.4,0-0.7-0.1-1.1,0
			c-3.4,0.1-6.6,1.8-8.5,4.7c-0.1,0.2-0.2,0.3-0.4,0.4c-0.1,0.1-0.3,0.2-0.5,0.3c-2.8,1.1-4.7,4.6-4.7,8.8c0,0.8,0.1,1.6,0.3,2.5"/>
		<path id="Path_4633" class="st11" d="M30.6,5.6c-0.1,0-0.2,0.1-0.3,0.1c-0.1,0-0.2,0.1-0.4,0.1"/>
		<path id="Path_4634" class="st11" d="M86.2,53.1C79.3,47.7,73,41.5,67.2,34.9c-4.7-5.5-6.8-9.7-12.7-14.5c-1-0.8-2.1-1.6-3.2-2.5
			c0,0,0,0,0,0c-0.3-0.3-0.7-0.5-1-0.8c-1.9-1.5-3.6-3.2-5.2-4.9l0,0c-0.9-1.9-2.2-3.4-3.9-4.6c-2-1.5-4.4-2.2-6.8-2.3
			c-1.2,0-2.4,0.1-3.6,0.4"/>
		<path id="Path_4635" class="st11" d="M110.4,70.8C110.4,70.8,110.4,70.8,110.4,70.8c3.4-1.8,4.7-6.4,3.1-9c-0.7-1.1,0.5-3.1,0-4.2
			c-0.7-1.6-1.7-3.1-2.9-4.5c-1-0.9-5-1.6-9.1-1.7s-9.9,0.5-10.8,4.4"/>
		<path id="Path_4636" class="st11" d="M110.3,77.4v-5.7c0-0.3,0-0.6,0.1-0.9c0.2-0.9,0.7-1.7,1.4-2.3"/>
		<path id="Path_4637" class="st11" d="M91.5,74.6L91.5,74.6c0.7,0.9,1.4,1.9,2,2.9"/>
		<path id="Path_4638" class="st11" d="M109.6,88.3v-7.8c0-1,0.7-1.9,0.7-3"/>
		<path id="Path_4639" class="st11" d="M93.4,77.4c0,1.5,0.7,2.5,0.7,3.3v7.4"/>
		<path id="Path_4640" class="st10" d="M36.5,115.1c1.8,0,3.6-0.2,5.3-0.7c1.3-0.4,2.6-1,3.7-1.9c1.4-1,2.2-2.1,3.2-2.7"/>
		<path id="Path_4641" class="st11" d="M36.5,115.1L36.5,115.1c0,0.1,0,0.2,0,0.3c-0.3,2-1,4-2,5.8c-4.5,0.6-6,3.6-6,8.7"/>
		<path id="Path_4642" class="st11" d="M19.8,99.4c-0.3,2.3-0.1,4.7,0.7,6.9c2.1,6,7.3,9.4,11.9,8.5c1.3,0.2,2.7,0.3,4,0.3"/>
		<path id="Path_4643" class="st10" d="M93.4,77.4c0,0.9,3.8,1.7,8.4,1.7s8.2-0.7,8.4-1.6c0,0,0-0.1,0-0.1"/>
		<path id="Path_4644" class="st10" d="M90.6,88.2c0,1.9,5,3.5,11.2,3.5s11.2-1.6,11.2-3.5"/>
		<path id="Path_4645" class="st10" d="M94.2,88.2c0,1,3.4,1.8,7.7,1.8s7.7-0.8,7.7-1.8"/>
		<path id="Path_4646" class="st11" d="M109.5,85.6L109.5,85.6c2.2,0.6,3.6,1.6,3.6,2.6v2.2c0,0.4-0.2,0.8-0.5,1.1
			c-0.9,0.8-2,1.3-3.2,1.5c-0.3,0.1-0.7,0.2-1.1,0.3c-0.9,0.2-1.8,0.3-2.7,0.4c-1.1,0.1-2.1,0.2-3.2,0.2c-0.2,0-0.4,0-0.6,0
			c-0.3,0-0.7,0-1.1,0c-1.1,0-2.2-0.1-3.3-0.3c-0.8-0.1-1.7-0.3-2.5-0.4c-0.4-0.1-0.7-0.2-1.1-0.3c-1.2-0.3-2.2-0.8-3.1-1.7
			c-0.2-0.2-0.3-0.5-0.3-0.8v-2.2c0-1,1.4-1.9,3.5-2.6"/>
		<path id="Path_4647" class="st10" d="M100.8,93.8c-0.7,0.2-1.2,0.9-1.2,1.6c0,0.4,0.9,0.7,2,0.7s2-0.3,2-0.7
			c0-0.7-0.5-1.3-1.2-1.6"/>
		<path id="Path_4648" class="st10" d="M105.7,93.7c-0.3,0.3-0.4,0.7-0.4,1.1c0,0.4,0.9,0.7,2,0.7s2-0.3,2-0.7c0-0.6-0.4-1.2-1-1.5"
			/>
		<path id="Path_4649" class="st10" d="M95.1,93.2C94.4,93.4,94,94,94,94.7c0,0.4,0.9,0.7,2,0.7s2-0.3,2-0.7c0-0.4-0.2-0.8-0.5-1.1"
			/>
		<path id="Path_4650" class="st10" d="M90.9,91.2c-0.4,0.3-0.7,0.8-0.7,1.3c0,0.4,0.9,0.7,2,0.7c0.6,0,1.2-0.1,1.8-0.3"/>
		<path id="Path_4651" class="st10" d="M109.4,92.9C109.4,92.9,109.4,92.9,109.4,92.9c0.6,0.2,1.1,0.3,1.7,0.3c1.1,0,2-0.3,2-0.7
			c0-0.4-0.2-0.8-0.5-1.1"/>
		<path id="Path_4652" class="st10" d="M27.2,5.4c0.9,0,1.8,0.2,2.7,0.5c4.3,1.5,7.4,6.3,7.4,12.1s-3.3,11.2-7.3,11.2"/>
		<path id="Path_4653" class="st10" d="M28.7,5.3c0.6,0,1.3,0.1,1.9,0.2l0,0c4.7,1.2,8.2,6.5,8.2,12.6c0,5.5-3.3,11.2-7.3,11.2"/>
		<g id="Group_1697">
			<path id="Path_4654" class="st7" d="M53.2,27.9l-0.9-0.8c-0.5,0.3-1.1,0.5-1.7,0.8c0.1-0.6,0.3-1.2,0.5-1.8l-0.9-0.8
				c-0.3,0.9-0.5,1.9-0.6,2.9l-1.1,1.3l0.8,0.7l1.1-1.3C51.4,28.7,52.3,28.4,53.2,27.9z"/>
			<path id="Path_4655" class="st7" d="M53.9,28.6c-1.4,0.6-2.7,1.4-4,2.2l0.9,0.8c0.2-0.1,0.4-0.3,0.6-0.4l1.1,1
				c-0.1,0.2-0.2,0.5-0.3,0.7l0.8,0.8c0.7-1.3,1.3-2.8,1.7-4.2L53.9,28.6L53.9,28.6z M52.9,31.4l-0.8-0.7c0.5-0.3,1-0.6,1.5-0.9
				C53.4,30.3,53.2,30.8,52.9,31.4L52.9,31.4z"/>
			<path id="Path_4656" class="st7" d="M56.5,33.6l-0.5-1c-0.1-0.2-0.2-0.4,0-0.5c0.1-0.1,0.2-0.2,0.4-0.1c0,0,0,0,0,0
				c0.4,0.3,0.8,0.7,1.1,1.2l0.6-0.7c-0.3-0.4-0.6-0.7-1-1c-0.2-0.2-0.4-0.3-0.6-0.4c-0.5-0.3-0.9-0.2-1.4,0.3
				c-0.3,0.3-0.4,0.8-0.2,1.3l0.5,1c0.1,0.2,0.2,0.4,0,0.5c-0.1,0.1-0.2,0.2-0.4,0.1c0,0,0,0,0,0c-0.4-0.3-0.8-0.8-1.1-1.2l-0.6,0.7
				c0.3,0.4,0.6,0.7,1,1c0.2,0.2,0.4,0.3,0.6,0.4c0.5,0.3,0.9,0.2,1.4-0.3C56.7,34.5,56.8,34,56.5,33.6L56.5,33.6z"/>
			<path id="Path_4657" class="st7" d="M62.5,36.1c-1.3,0.5-2.5,1.2-3.6,2c0.2-0.8,0.3-1.5,0.3-2.3c0.8-0.1,1.6-0.2,2.4-0.5
				l-0.9-0.8c-0.7,0.2-1.4,0.4-2.1,0.5l1.1-1.3l-0.8-0.7L56,36.1l0.8,0.7l1.4-1.6c-0.1,0.8-0.2,1.7-0.4,2.5l0.7,0.6h0l0.9,0.8
				c0.2-0.1,0.4-0.3,0.6-0.4l1.1,1c-0.1,0.2-0.2,0.5-0.3,0.7l0.8,0.8c0.7-1.3,1.3-2.7,1.7-4.2L62.5,36.1L62.5,36.1z M61.5,38.9
				l-0.8-0.7c0.5-0.3,1-0.6,1.5-0.9C62,37.8,61.7,38.3,61.5,38.9C61.5,38.9,61.5,38.9,61.5,38.9z"/>
			<path id="Path_4658" class="st7" d="M67.8,40.8c-0.7,0.5-1.6,1.2-2.4,1.7c0.4-0.9,0.9-1.9,1.4-2.6l-0.8-0.7
				c-0.7,0.5-1.6,1.2-2.4,1.7c0.5-0.9,1-1.8,1.4-2.6l-0.8-0.8c-0.7,1.3-1.3,2.6-1.9,4l0.9,0.8c0.5-0.4,1.3-0.9,2-1.4
				c-0.4,0.8-0.8,1.5-1.1,2.2L65,44c1.3-0.7,2.5-1.5,3.7-2.4L67.8,40.8L67.8,40.8z"/>
			<path id="Path_4659" class="st7" d="M69.6,42.4c-1.4,0.6-2.7,1.3-3.9,2.2l0.8,0.8c0.2-0.1,0.4-0.3,0.6-0.4l1.1,1
				c-0.1,0.2-0.2,0.5-0.3,0.6l0.8,0.8c0.7-1.3,1.3-2.8,1.7-4.2L69.6,42.4L69.6,42.4z M68.6,45.2l-0.8-0.7c0.5-0.3,1-0.6,1.5-0.9
				C69.1,44.1,68.9,44.6,68.6,45.2L68.6,45.2L68.6,45.2z"/>
		</g>
	</g>
</g>
</svg>
