<svg xmlns="http://www.w3.org/2000/svg" width="259.315" height="235.698" viewBox="0 0 259.315 235.698">
  <g id="Group_1383" data-name="Group 1383" transform="translate(-4225.5 -3169.71)">
    <g id="Group_1203" data-name="Group 1203" transform="translate(2436.803 399)">
      <g id="Group_1182" data-name="Group 1182" transform="translate(1789.197 2865.344)">
        <g id="Group_1115" data-name="Group 1115" transform="translate(0 26.114)">
          <g id="Group_1108" data-name="Group 1108" transform="translate(0 0)">
            <path id="Path_3612" data-name="Path 3612" d="M214.413,40.661,198.1,35.345,65.209,101.816v4.513l16.315,5.316L214.413,45.174Z" transform="translate(-65.209 -35.345)" fill="#fff"/>
            <path id="Path_3613" data-name="Path 3613" d="M214.426,41.021,198.111,35.7l-132.9,65.641v4.513l16.315,5.316,132.9-65.641Z" transform="translate(-65.209 -34.875)" fill="none" stroke="#000" stroke-linecap="round" stroke-linejoin="round" stroke-width="1"/>
            <path id="Path_3614" data-name="Path 3614" d="M214.343,38.765,81.524,104.62,65.209,99.3" transform="translate(-65.209 -32.833)" fill="none" stroke="#000" stroke-linecap="round" stroke-linejoin="round" stroke-width="0.5"/>
          </g>
          <line id="Line_47" data-name="Line 47" y2="4.513" transform="translate(16.315 71.786)" fill="none" stroke="#000" stroke-linecap="round" stroke-linejoin="round" stroke-width="0.5"/>
        </g>
        <g id="Group_1117" data-name="Group 1117" transform="translate(45.244 42.073)">
          <g id="Group_1108-2" data-name="Group 1108" transform="translate(0 0)">
            <path id="Path_3612-2" data-name="Path 3612" d="M214.413,40.661,198.1,35.345,65.209,101.816v4.513l16.315,5.316L214.413,45.174Z" transform="translate(-65.209 -35.345)" fill="#fff"/>
            <path id="Path_3613-2" data-name="Path 3613" d="M214.426,41.021,198.111,35.7l-132.9,65.641v4.513l16.315,5.316,132.9-65.641Z" transform="translate(-65.209 -34.875)" fill="none" stroke="#000" stroke-linecap="round" stroke-linejoin="round" stroke-width="1"/>
            <path id="Path_3614-2" data-name="Path 3614" d="M214.343,38.765,81.524,104.62,65.209,99.3" transform="translate(-65.209 -32.833)" fill="none" stroke="#000" stroke-linecap="round" stroke-linejoin="round" stroke-width="0.5"/>
          </g>
          <line id="Line_47-2" data-name="Line 47" y2="4.513" transform="translate(16.315 71.786)" fill="none" stroke="#000" stroke-linecap="round" stroke-linejoin="round" stroke-width="0.5"/>
        </g>
        <g id="Group_1116" data-name="Group 1116" transform="translate(59.047 46.686)">
          <g id="Group_1108-3" data-name="Group 1108" transform="translate(0 0)">
            <path id="Path_3612-3" data-name="Path 3612" d="M214.413,40.661,198.1,35.345,65.209,101.816v4.513l16.315,5.316L214.413,45.174Z" transform="translate(-65.209 -35.345)" fill="#fff"/>
            <path id="Path_3613-3" data-name="Path 3613" d="M214.426,41.021,198.111,35.7l-132.9,65.641v4.513l16.315,5.316,132.9-65.641Z" transform="translate(-65.209 -34.875)" fill="none" stroke="#000" stroke-linecap="round" stroke-linejoin="round" stroke-width="1"/>
            <path id="Path_3614-3" data-name="Path 3614" d="M214.343,38.765,81.524,104.62,65.209,99.3" transform="translate(-65.209 -32.833)" fill="none" stroke="#000" stroke-linecap="round" stroke-linejoin="round" stroke-width="0.5"/>
          </g>
          <line id="Line_47-3" data-name="Line 47" y2="4.513" transform="translate(16.315 71.786)" fill="none" stroke="#000" stroke-linecap="round" stroke-linejoin="round" stroke-width="0.5"/>
        </g>
        <g id="Group_1114" data-name="Group 1114" transform="translate(109.097 64.264)">
          <g id="Group_1108-4" data-name="Group 1108" transform="translate(0 0)">
            <path id="Path_3612-4" data-name="Path 3612" d="M214.413,40.661,198.1,35.345,65.209,101.816v4.513l16.315,5.316L214.413,45.174Z" transform="translate(-65.209 -35.345)" fill="#fff"/>
            <path id="Path_3613-4" data-name="Path 3613" d="M214.426,41.021,198.111,35.7l-132.9,65.641v4.513l16.315,5.316,132.9-65.641Z" transform="translate(-65.209 -34.875)" fill="none" stroke="#000" stroke-linecap="round" stroke-linejoin="round" stroke-width="1"/>
            <path id="Path_3614-4" data-name="Path 3614" d="M214.343,38.765,81.524,104.62,65.209,99.3" transform="translate(-65.209 -32.833)" fill="none" stroke="#000" stroke-linecap="round" stroke-linejoin="round" stroke-width="0.5"/>
          </g>
          <line id="Line_47-4" data-name="Line 47" y2="4.513" transform="translate(16.315 71.786)" fill="none" stroke="#000" stroke-linecap="round" stroke-linejoin="round" stroke-width="0.5"/>
        </g>
        <line id="Line_41" data-name="Line 41" y2="4.513" transform="translate(16.315 97.749)" fill="none" stroke="#000" stroke-linecap="round" stroke-linejoin="round" stroke-width="0.5"/>
        <path id="Path_3596" data-name="Path 3596" d="M21.771,79.746l20.591,6.8,3.357,12.763L75.69,109.56l3.831-1.5,1.248-8.044,25.474,8.486,3.375,12.834L125.9,126.89l5.921-3.112V100.713L6.435,59.053.514,62.165V83.614L16.807,89.1l3.8-1.812Z" transform="translate(-0.491 8.914)" fill="#fff"/>
        <path id="Path_3597" data-name="Path 3597" d="M21.771,79.746l20.591,6.8,3.357,12.763L75.69,109.56l3.867-1.819,1.211-7.725,25.474,8.486,3.375,12.834L125.9,126.89l5.921-3.112V100.713L6.435,59.053.514,62.165V83.614L16.807,89.1l3.8-1.812,1.168-7.543" transform="translate(-0.491 8.914)" fill="none" stroke="#000" stroke-linecap="round" stroke-linejoin="round" stroke-width="1"/>
        <path id="Path_3598" data-name="Path 3598" d="M.514,60.9,125.9,102.559v23.064" transform="translate(-0.491 10.179)" fill="none" stroke="#000" stroke-linecap="round" stroke-linejoin="round" stroke-width="0.5"/>
        <path id="Path_3599" data-name="Path 3599" d="M38.1,43.543V64.992l125.39,43.276,5.919-3.112V82.092L44.023,40.431Z" transform="translate(25.294 -3.86)" fill="#fff"/>
        <path id="Path_3600" data-name="Path 3600" d="M38.1,43.543V64.992l125.39,43.276,5.919-3.112V82.092L44.023,40.431Z" transform="translate(25.294 -3.86)" fill="none" stroke="#000" stroke-linecap="round" stroke-linejoin="round" stroke-width="1"/>
        <path id="Path_3601" data-name="Path 3601" d="M38.1,42.277l125.39,41.661V107" transform="translate(25.294 -2.594)" fill="none" stroke="#000" stroke-linecap="round" stroke-linejoin="round" stroke-width="0.5"/>
        <path id="Path_3602" data-name="Path 3602" d="M75.69,24.921V46.37L201.08,89.646,207,86.534V63.47L81.611,21.809Z" transform="translate(51.078 -16.635)" fill="#fff"/>
        <path id="Path_3606" data-name="Path 3606" d="M113.277,6.3V27.749l125.39,43.276,5.919-3.112V44.848L119.2,3.187Z" transform="translate(13.491 1.987)" fill="none" stroke="#000" stroke-linecap="round" stroke-linejoin="round" stroke-width="1"/>
        <path id="Path_3607" data-name="Path 3607" d="M113.277,5.033l125.39,41.661V69.758" transform="translate(13.491 3.253)" fill="none" stroke="#000" stroke-linecap="round" stroke-linejoin="round" stroke-width="0.5"/>
        <line id="Line_43" data-name="Line 43" y2="4.513" transform="translate(16.315 71.788)" fill="none" stroke="#000" stroke-linecap="round" stroke-linejoin="round" stroke-width="0.5"/>
        <line id="Line_44" data-name="Line 44" y2="4.513" transform="translate(43.59 80.853)" fill="none" stroke="#000" stroke-linecap="round" stroke-linejoin="round" stroke-width="0.5"/>
        <line id="Line_45" data-name="Line 45" y2="4.513" transform="translate(70.864 89.918)" fill="none" stroke="#000" stroke-linecap="round" stroke-linejoin="round" stroke-width="0.5"/>
        <line id="Line_46" data-name="Line 46" y2="4.513" transform="translate(98.138 98.984)" fill="none" stroke="#000" stroke-linecap="round" stroke-linejoin="round" stroke-width="0.5"/>
        <g id="Group_1109" data-name="Group 1109" transform="translate(109.097 37.093)">
          <g id="Group_1108-5" data-name="Group 1108" transform="translate(0 0)">
            <path id="Path_3612-5" data-name="Path 3612" d="M214.426,40.6,198.11,35.345l-132.9,65.748v4.464l16.317,5.258,132.9-65.748Z" transform="translate(-65.209 -35.345)" fill="#fff"/>
            <path id="Path_3613-5" data-name="Path 3613" d="M214.426,41.021,198.111,35.7l-132.9,65.641v4.513l16.315,5.316,132.9-65.641Z" transform="translate(-65.209 -35.705)" fill="none" stroke="#000" stroke-linecap="round" stroke-linejoin="round" stroke-width="1"/>
            <path id="Path_3614-5" data-name="Path 3614" d="M214.343,38.765,81.524,104.62,65.209,99.3" transform="translate(-65.209 -33.663)" fill="none" stroke="#000" stroke-linecap="round" stroke-linejoin="round" stroke-width="0.5"/>
          </g>
          <line id="Line_47-5" data-name="Line 47" y2="4.513" transform="translate(16.315 70.956)" fill="none" stroke="#000" stroke-linecap="round" stroke-linejoin="round" stroke-width="0.5"/>
        </g>
        <g id="Group_1110" data-name="Group 1110" transform="translate(81.823 28.027)">
          <g id="Group_1108-6" data-name="Group 1108" transform="translate(0 0)">
            <path id="Path_3612-6" data-name="Path 3612" d="M214.413,41.925l-16.148-5.059L65.209,102.378v4.513l16.315,5.316L214.413,45.737Z" transform="translate(-65.209 -36.737)" fill="#fff"/>
            <path id="Path_3613-6" data-name="Path 3613" d="M214.426,41.021,198.111,35.7l-132.9,65.641v4.513l16.315,5.316,132.9-65.641Z" transform="translate(-65.209 -35.705)" fill="none" stroke="#000" stroke-linecap="round" stroke-linejoin="round" stroke-width="1"/>
            <path id="Path_3614-6" data-name="Path 3614" d="M214.343,38.765,81.524,104.62,65.209,99.3" transform="translate(-65.209 -33.663)" fill="none" stroke="#000" stroke-linecap="round" stroke-linejoin="round" stroke-width="0.5"/>
          </g>
          <line id="Line_47-6" data-name="Line 47" y2="4.513" transform="translate(16.315 70.956)" fill="none" stroke="#000" stroke-linecap="round" stroke-linejoin="round" stroke-width="0.5"/>
        </g>
        <g id="Group_1111" data-name="Group 1111" transform="translate(54.441 18.368)">
          <g id="Group_1108-7" data-name="Group 1108" transform="translate(0 0)">
            <path id="Path_3612-7" data-name="Path 3612" d="M214.413,41.514,198.1,35.345,65.209,101.816v4.513l16.315,5.316L214.413,45.961Z" transform="translate(-65.209 -35.345)" fill="#fff"/>
            <path id="Path_3613-7" data-name="Path 3613" d="M214.426,41.021,198.111,35.7l-132.9,65.641v4.513l16.315,5.316,132.9-65.641Z" transform="translate(-65.209 -34.875)" fill="none" stroke="#000" stroke-linecap="round" stroke-linejoin="round" stroke-width="1"/>
            <path id="Path_3614-7" data-name="Path 3614" d="M214.343,38.765,81.524,104.62,65.209,99.3" transform="translate(-65.209 -32.833)" fill="none" stroke="#000" stroke-linecap="round" stroke-linejoin="round" stroke-width="0.5"/>
          </g>
          <line id="Line_47-7" data-name="Line 47" y2="4.513" transform="translate(16.315 71.786)" fill="none" stroke="#000" stroke-linecap="round" stroke-linejoin="round" stroke-width="0.5"/>
        </g>
        <g id="Group_1112" data-name="Group 1112" transform="translate(27.274 9.145)">
          <g id="Group_1108-8" data-name="Group 1108" transform="translate(0 0)">
            <path id="Path_3612-8" data-name="Path 3612" d="M214.413,40.661,198.1,35.345,65.209,101.816v4.513l16.315,5.316L214.413,45.174Z" transform="translate(-65.209 -35.345)" fill="#fff"/>
            <path id="Path_3613-8" data-name="Path 3613" d="M214.426,41.021,198.111,35.7l-132.9,65.641v4.513l16.315,5.316,132.9-65.641Z" transform="translate(-65.209 -34.875)" fill="none" stroke="#000" stroke-linecap="round" stroke-linejoin="round" stroke-width="1"/>
            <path id="Path_3614-8" data-name="Path 3614" d="M214.343,38.765,81.524,104.62,65.209,99.3" transform="translate(-65.209 -32.833)" fill="none" stroke="#000" stroke-linecap="round" stroke-linejoin="round" stroke-width="0.5"/>
          </g>
          <line id="Line_47-8" data-name="Line 47" y2="4.513" transform="translate(16.315 71.786)" fill="none" stroke="#000" stroke-linecap="round" stroke-linejoin="round" stroke-width="0.5"/>
        </g>
        <g id="Group_1113" data-name="Group 1113" transform="translate(0 0)">
          <g id="Group_1108-9" data-name="Group 1108">
            <path id="Path_3612-9" data-name="Path 3612" d="M214.413,40.661,198.1,35.345,65.209,101.816v4.513l16.315,5.316L214.413,45.174Z" transform="translate(-65.209 -35.345)" fill="#fff"/>
            <path id="Path_3613-9" data-name="Path 3613" d="M214.426,41.021,198.111,35.7l-132.9,65.641v4.513l16.315,5.316,132.9-65.641Z" transform="translate(-65.209 -34.875)" fill="none" stroke="#000" stroke-linecap="round" stroke-linejoin="round" stroke-width="1"/>
            <path id="Path_3614-9" data-name="Path 3614" d="M214.343,38.765,81.524,104.62,65.209,99.3" transform="translate(-65.209 -32.833)" fill="none" stroke="#000" stroke-linecap="round" stroke-linejoin="round" stroke-width="0.5"/>
          </g>
          <line id="Line_47-9" data-name="Line 47" y2="4.513" transform="translate(16.315 71.786)" fill="none" stroke="#000" stroke-linecap="round" stroke-linejoin="round" stroke-width="0.5"/>
        </g>
        <line id="Line_48" data-name="Line 48" y2="4.513" transform="translate(125.412 135.804)" fill="none" stroke="#000" stroke-linecap="round" stroke-linejoin="round" stroke-width="0.5"/>
        <line id="Line_49" data-name="Line 49" x2="3.443" y2="1.086" transform="translate(17.836 87.574)" fill="#fff"/>
        <line id="Line_50" data-name="Line 50" x2="3.443" y2="1.086" transform="translate(17.836 87.574)" fill="none" stroke="#000" stroke-linecap="round" stroke-linejoin="round" stroke-width="1"/>
        <line id="Line_51" data-name="Line 51" y1="10.696" x2="1.521" transform="translate(16.316 87.575)" fill="none" stroke="#000" stroke-linecap="round" stroke-linejoin="round" stroke-width="0.5"/>
        <line id="Line_52" data-name="Line 52" x2="3.564" y2="1.116" transform="translate(76.713 107.813)" fill="#fff"/>
        <line id="Line_53" data-name="Line 53" x2="3.564" y2="1.116" transform="translate(76.713 107.813)" fill="none" stroke="#000" stroke-linecap="round" stroke-linejoin="round" stroke-width="1"/>
        <line id="Line_54" data-name="Line 54" y1="10.661" x2="1.512" transform="translate(75.2 107.813)" fill="none" stroke="#000" stroke-linecap="round" stroke-linejoin="round" stroke-width="0.5"/>
      </g>
      <g id="Group_1043" data-name="Group 1043" transform="translate(1875.767 2845.604)">
        <path id="Path_3792" data-name="Path 3792" d="M153.255,298.671v35.82L121.01,323.74V287.92Z" transform="translate(-120.808 -273.818)" fill="#bac2c7"/>
        <path id="Path_3793" data-name="Path 3793" d="M121.01,281.325l29-14.325,32.238,10.861-29,14.325L121.01,281.436Z" transform="translate(-121.01 -267)" fill="#d7d9db"/>
        <path id="Path_3794" data-name="Path 3794" d="M167.74,332.885v-35.82l29-14.325v35.82Z" transform="translate(-135.667 -272.199)" fill="#9eacb5"/>
      </g>
      <g id="Group_1047" data-name="Group 1047" transform="translate(1875.767 2808.172)">
        <path id="Path_3792-2" data-name="Path 3792" d="M153.255,298.671v35.82L121.01,323.74V287.92Z" transform="translate(-120.808 -273.818)" fill="#bac2c7"/>
        <path id="Path_3793-2" data-name="Path 3793" d="M121.01,281.325l29-14.325,32.238,10.861-29,14.325L121.01,281.436Z" transform="translate(-121.01 -267)" fill="#d7d9db"/>
        <path id="Path_3794-2" data-name="Path 3794" d="M167.74,332.885v-35.82l29-14.325v35.82Z" transform="translate(-135.667 -272.199)" fill="#9eacb5"/>
      </g>
      <g id="Group_1034" data-name="Group 1034" transform="translate(1909.819 2857.091)">
        <path id="Path_3792-3" data-name="Path 3792" d="M153.255,298.671v35.82L121.01,323.74V287.92Z" transform="translate(-120.808 -273.818)" fill="#bac2c7"/>
        <path id="Path_3793-3" data-name="Path 3793" d="M121.01,281.325l29-14.325,32.238,10.861-29,14.325L121.01,281.436Z" transform="translate(-121.01 -267)" fill="#d7d9db"/>
        <path id="Path_3794-3" data-name="Path 3794" d="M167.74,332.885v-35.82l29-14.325v35.82Z" transform="translate(-135.667 -272.199)" fill="#9eacb5"/>
      </g>
      <g id="Group_1038" data-name="Group 1038" transform="translate(1909.819 2819.66)">
        <path id="Path_3792-4" data-name="Path 3792" d="M153.255,298.671v35.82L121.01,323.74V287.92Z" transform="translate(-120.808 -273.818)" fill="#bac2c7"/>
        <path id="Path_3793-4" data-name="Path 3793" d="M121.01,281.325l29-14.325,32.238,10.861-29,14.325L121.01,281.436Z" transform="translate(-121.01 -267)" fill="#d7d9db"/>
        <path id="Path_3794-4" data-name="Path 3794" d="M167.74,332.885v-35.82l29-14.325v35.82Z" transform="translate(-135.667 -272.199)" fill="#9eacb5"/>
      </g>
      <g id="Group_1189" data-name="Group 1189" transform="translate(1909.559 2857.351)">
        <path id="Path_3792-5" data-name="Path 3792" d="M153.255,298.671v35.82L121.01,323.74V287.92Z" transform="translate(-120.808 -273.818)" fill="#639ec3"/>
        <path id="Path_3793-5" data-name="Path 3793" d="M121.01,281.325l29-14.325,32.238,10.861-29,14.325L121.01,281.436Z" transform="translate(-121.01 -267)" fill="#94c6e5"/>
        <path id="Path_3794-5" data-name="Path 3794" d="M167.74,332.885v-35.82l29-14.325v35.82Z" transform="translate(-135.667 -272.199)" fill="#2d77af"/>
      </g>
      <g id="Group_1198" data-name="Group 1198" transform="translate(1814.266 2875.787)">
        <path id="Path_3792-6" data-name="Path 3792" d="M153.255,298.671v35.82L121.01,323.74V287.92Z" transform="translate(-120.808 -273.818)" fill="#639ec3"/>
        <path id="Path_3793-6" data-name="Path 3793" d="M121.01,281.325l29-14.325,32.238,10.861-29,14.325L121.01,281.436Z" transform="translate(-121.01 -267)" fill="#94c6e5"/>
        <path id="Path_3794-6" data-name="Path 3794" d="M167.74,332.885v-35.82l29-14.325v35.82Z" transform="translate(-135.667 -272.199)" fill="#2d77af"/>
      </g>
      <g id="Group_1199" data-name="Group 1199" transform="translate(1814.266 2838.225)">
        <path id="Path_3792-7" data-name="Path 3792" d="M153.255,298.671v35.82L121.01,323.74V287.92Z" transform="translate(-120.808 -273.818)" fill="#639ec3"/>
        <path id="Path_3793-7" data-name="Path 3793" d="M121.01,281.325l29-14.325,32.238,10.861-29,14.325L121.01,281.436Z" transform="translate(-121.01 -267)" fill="#94c6e5"/>
        <path id="Path_3794-7" data-name="Path 3794" d="M167.74,332.885v-35.82l29-14.325v35.82Z" transform="translate(-135.667 -272.199)" fill="#2d77af"/>
      </g>
      <g id="Group_1200" data-name="Group 1200" transform="translate(1875.506 2770.71)">
        <path id="Path_3792-8" data-name="Path 3792" d="M153.255,298.671v35.82L121.01,323.74V287.92Z" transform="translate(-120.808 -273.818)" fill="#639ec3"/>
        <path id="Path_3793-8" data-name="Path 3793" d="M121.01,281.325l29-14.325,32.238,10.861-29,14.325L121.01,281.436Z" transform="translate(-121.01 -267)" fill="#94c6e5"/>
        <path id="Path_3794-8" data-name="Path 3794" d="M167.74,332.885v-35.82l29-14.325v35.82Z" transform="translate(-135.667 -272.199)" fill="#2d77af"/>
      </g>
      <g id="Group_1201" data-name="Group 1201" transform="translate(1844.886 2785.787)">
        <path id="Path_3792-9" data-name="Path 3792" d="M153.255,298.671v35.82L121.01,323.74V287.92Z" transform="translate(-120.808 -273.818)" fill="#639ec3"/>
        <path id="Path_3793-9" data-name="Path 3793" d="M121.01,281.325l29-14.325,32.238,10.861-29,14.325L121.01,281.436Z" transform="translate(-121.01 -267)" fill="#94c6e5"/>
        <path id="Path_3794-9" data-name="Path 3794" d="M167.74,332.885v-35.82l29-14.325v35.82Z" transform="translate(-135.667 -272.199)" fill="#2d77af"/>
      </g>
      <g id="Group_1202" data-name="Group 1202" transform="translate(1814.266 2800.924)">
        <path id="Path_3792-10" data-name="Path 3792" d="M153.255,298.671v35.82L121.01,323.74V287.92Z" transform="translate(-120.808 -273.818)" fill="#639ec3"/>
        <path id="Path_3793-10" data-name="Path 3793" d="M121.01,281.325l29-14.325,32.238,10.861-29,14.325L121.01,281.436Z" transform="translate(-121.01 -267)" fill="#94c6e5"/>
        <path id="Path_3794-10" data-name="Path 3794" d="M167.74,332.885v-35.82l29-14.325v35.82Z" transform="translate(-135.667 -272.199)" fill="#2d77af"/>
      </g>
      <g id="Group_1190" data-name="Group 1190" transform="translate(1878.938 2872.428)">
        <path id="Path_3792-11" data-name="Path 3792" d="M153.255,298.671v35.82L121.01,323.74V287.92Z" transform="translate(-120.808 -273.818)" fill="#639ec3"/>
        <path id="Path_3793-11" data-name="Path 3793" d="M121.01,281.325l29-14.325,32.238,10.861-29,14.325L121.01,281.436Z" transform="translate(-121.01 -267)" fill="#94c6e5"/>
        <path id="Path_3794-11" data-name="Path 3794" d="M167.74,332.885v-35.82l29-14.325v35.82Z" transform="translate(-135.667 -272.199)" fill="#2d77af"/>
      </g>
      <g id="Group_1191" data-name="Group 1191" transform="translate(1848.318 2887.564)">
        <path id="Path_3792-12" data-name="Path 3792" d="M153.255,298.671v35.82L121.01,323.74V287.92Z" transform="translate(-120.808 -273.818)" fill="#639ec3"/>
        <path id="Path_3793-12" data-name="Path 3793" d="M121.01,281.325l29-14.325,32.238,10.861-29,14.325L121.01,281.436Z" transform="translate(-121.01 -267)" fill="#94c6e5"/>
        <path id="Path_3794-12" data-name="Path 3794" d="M167.74,332.885v-35.82l29-14.325v35.82Z" transform="translate(-135.667 -272.199)" fill="#2d77af"/>
      </g>
      <g id="Group_1197" data-name="Group 1197" transform="translate(1848.318 2850.003)">
        <path id="Path_3792-13" data-name="Path 3792" d="M153.255,298.671v35.82L121.01,323.74V287.92Z" transform="translate(-120.808 -273.818)" fill="#639ec3"/>
        <path id="Path_3793-13" data-name="Path 3793" d="M121.01,281.325l29-14.325,32.238,10.861-29,14.325L121.01,281.436Z" transform="translate(-121.01 -267)" fill="#94c6e5"/>
        <path id="Path_3794-13" data-name="Path 3794" d="M167.74,332.885v-35.82l29-14.325v35.82Z" transform="translate(-135.667 -272.199)" fill="#2d77af"/>
      </g>
      <g id="Group_1192" data-name="Group 1192" transform="translate(1909.559 2819.66)">
        <path id="Path_3792-14" data-name="Path 3792" d="M153.255,298.671v35.82L121.01,323.74V287.92Z" transform="translate(-120.808 -273.818)" fill="#639ec3"/>
        <path id="Path_3793-14" data-name="Path 3793" d="M121.01,281.325l29-14.325,32.238,10.861-29,14.325L121.01,281.436Z" transform="translate(-121.01 -267)" fill="#94c6e5"/>
        <path id="Path_3794-14" data-name="Path 3794" d="M167.74,332.885v-35.82l29-14.325v35.82Z" transform="translate(-135.667 -272.199)" fill="#2d77af"/>
      </g>
      <g id="Group_1194" data-name="Group 1194" transform="translate(1909.559 2782.488)">
        <path id="Path_3792-15" data-name="Path 3792" d="M153.255,298.671v35.82L121.01,323.74V287.92Z" transform="translate(-120.808 -273.818)" fill="#639ec3"/>
        <path id="Path_3793-15" data-name="Path 3793" d="M121.01,281.325l29-14.325,32.238,10.861-29,14.325L121.01,281.436Z" transform="translate(-121.01 -267)" fill="#94c6e5"/>
        <path id="Path_3794-15" data-name="Path 3794" d="M167.74,332.885v-35.82l29-14.325v35.82Z" transform="translate(-135.667 -272.199)" fill="#2d77af"/>
      </g>
      <g id="Group_1195" data-name="Group 1195" transform="translate(1878.938 2797.564)">
        <path id="Path_3792-16" data-name="Path 3792" d="M153.255,298.671v35.82L121.01,323.74V287.92Z" transform="translate(-120.808 -273.818)" fill="#639ec3"/>
        <path id="Path_3793-16" data-name="Path 3793" d="M121.01,281.325l29-14.325,32.238,10.861-29,14.325L121.01,281.436Z" transform="translate(-121.01 -267)" fill="#94c6e5"/>
        <path id="Path_3794-16" data-name="Path 3794" d="M167.74,332.885v-35.82l29-14.325v35.82Z" transform="translate(-135.667 -272.199)" fill="#2d77af"/>
      </g>
      <g id="Group_1196" data-name="Group 1196" transform="translate(1848.318 2812.701)">
        <path id="Path_3792-17" data-name="Path 3792" d="M153.255,298.671v35.82L121.01,323.74V287.92Z" transform="translate(-120.808 -273.818)" fill="#639ec3"/>
        <path id="Path_3793-17" data-name="Path 3793" d="M121.01,281.325l29-14.325,32.238,10.861-29,14.325L121.01,281.436Z" transform="translate(-121.01 -267)" fill="#94c6e5"/>
        <path id="Path_3794-17" data-name="Path 3794" d="M167.74,332.885v-35.82l29-14.325v35.82Z" transform="translate(-135.667 -272.199)" fill="#2d77af"/>
      </g>
      <g id="Group_1186" data-name="Group 1186" transform="translate(1943.922 2868.789)">
        <path id="Path_3792-18" data-name="Path 3792" d="M153.255,298.671v35.82L121.01,323.74V287.92Z" transform="translate(-120.808 -273.818)" fill="#639ec3"/>
        <path id="Path_3793-18" data-name="Path 3793" d="M121.01,281.325l29-14.325,32.238,10.861-29,14.325L121.01,281.436Z" transform="translate(-121.01 -267)" fill="#94c6e5"/>
        <path id="Path_3794-18" data-name="Path 3794" d="M167.74,332.885v-35.82l29-14.325v35.82Z" transform="translate(-135.667 -272.199)" fill="#2d77af"/>
      </g>
      <g id="Group_1187" data-name="Group 1187" transform="translate(1913.302 2883.865)">
        <path id="Path_3792-19" data-name="Path 3792" d="M153.255,298.671v35.82L121.01,323.74V287.92Z" transform="translate(-120.808 -273.818)" fill="#639ec3"/>
        <path id="Path_3793-19" data-name="Path 3793" d="M121.01,281.325l29-14.325,32.238,10.861-29,14.325L121.01,281.436Z" transform="translate(-121.01 -267)" fill="#94c6e5"/>
        <path id="Path_3794-19" data-name="Path 3794" d="M167.74,332.885v-35.82l29-14.325v35.82Z" transform="translate(-135.667 -272.199)" fill="#2d77af"/>
      </g>
      <g id="Group_1188" data-name="Group 1188" transform="translate(1882.681 2899.002)">
        <path id="Path_3792-20" data-name="Path 3792" d="M153.255,298.671v35.82L121.01,323.74V287.92Z" transform="translate(-120.808 -273.818)" fill="#639ec3"/>
        <path id="Path_3793-20" data-name="Path 3793" d="M121.01,281.325l29-14.325,32.238,10.861-29,14.325L121.01,281.436Z" transform="translate(-121.01 -267)" fill="#94c6e5"/>
        <path id="Path_3794-20" data-name="Path 3794" d="M167.74,332.885v-35.82l29-14.325v35.82Z" transform="translate(-135.667 -272.199)" fill="#2d77af"/>
      </g>
      <g id="Group_1185" data-name="Group 1185" transform="translate(1943.922 2831.097)">
        <path id="Path_3792-21" data-name="Path 3792" d="M153.255,298.671v35.82L121.01,323.74V287.92Z" transform="translate(-120.808 -273.818)" fill="#639ec3"/>
        <path id="Path_3793-21" data-name="Path 3793" d="M121.01,281.325l29-14.325,32.238,10.861-29,14.325L121.01,281.436Z" transform="translate(-121.01 -267)" fill="#94c6e5"/>
        <path id="Path_3794-21" data-name="Path 3794" d="M167.74,332.885v-35.82l29-14.325v35.82Z" transform="translate(-135.667 -272.199)" fill="#2d77af"/>
      </g>
      <g id="Group_1184" data-name="Group 1184" transform="translate(1913.302 2846.174)">
        <path id="Path_3792-22" data-name="Path 3792" d="M153.255,298.671v35.82L121.01,323.74V287.92Z" transform="translate(-120.808 -273.818)" fill="#639ec3"/>
        <path id="Path_3793-22" data-name="Path 3793" d="M121.01,281.325l29-14.325,32.238,10.861-29,14.325L121.01,281.436Z" transform="translate(-121.01 -267)" fill="#94c6e5"/>
        <path id="Path_3794-22" data-name="Path 3794" d="M167.74,332.885v-35.82l29-14.325v35.82Z" transform="translate(-135.667 -272.199)" fill="#2d77af"/>
      </g>
      <g id="Group_1183" data-name="Group 1183" transform="translate(1882.681 2861.311)">
        <path id="Path_3792-23" data-name="Path 3792" d="M153.255,298.671v35.82L121.01,323.74V287.92Z" transform="translate(-120.808 -273.818)" fill="#639ec3"/>
        <path id="Path_3793-23" data-name="Path 3793" d="M121.01,281.325l29-14.325,32.238,10.861-29,14.325L121.01,281.436Z" transform="translate(-121.01 -267)" fill="#94c6e5"/>
        <path id="Path_3794-23" data-name="Path 3794" d="M167.74,332.885v-35.82l29-14.325v35.82Z" transform="translate(-135.667 -272.199)" fill="#2d77af"/>
      </g>
      <g id="Group_1026" data-name="Group 1026" transform="translate(1943.922 2793.925)">
        <path id="Path_3792-24" data-name="Path 3792" d="M153.255,298.671v35.82L121.01,323.74V287.92Z" transform="translate(-120.808 -273.818)" fill="#639ec3"/>
        <path id="Path_3793-24" data-name="Path 3793" d="M121.01,281.325l29-14.325,32.238,10.861-29,14.325L121.01,281.436Z" transform="translate(-121.01 -267)" fill="#94c6e5"/>
        <path id="Path_3794-24" data-name="Path 3794" d="M167.74,332.885v-35.82l29-14.325v35.82Z" transform="translate(-135.667 -272.199)" fill="#2d77af"/>
      </g>
      <g id="Group_1028" data-name="Group 1028" transform="translate(1913.302 2809.002)">
        <path id="Path_3792-25" data-name="Path 3792" d="M153.255,298.671v35.82L121.01,323.74V287.92Z" transform="translate(-120.808 -273.818)" fill="#639ec3"/>
        <path id="Path_3793-25" data-name="Path 3793" d="M121.01,281.325l29-14.325,32.238,10.861-29,14.325L121.01,281.436Z" transform="translate(-121.01 -267)" fill="#94c6e5"/>
        <path id="Path_3794-25" data-name="Path 3794" d="M167.74,332.885v-35.82l29-14.325v35.82Z" transform="translate(-135.667 -272.199)" fill="#2d77af"/>
      </g>
      <g id="Group_1031" data-name="Group 1031" transform="translate(1882.681 2824.139)">
        <path id="Path_3792-26" data-name="Path 3792" d="M153.255,298.671v35.82L121.01,323.74V287.92Z" transform="translate(-120.808 -273.818)" fill="#639ec3"/>
        <path id="Path_3793-26" data-name="Path 3793" d="M121.01,281.325l29-14.325,32.238,10.861-29,14.325L121.01,281.436Z" transform="translate(-121.01 -267)" fill="#94c6e5"/>
        <path id="Path_3794-26" data-name="Path 3794" d="M167.74,332.885v-35.82l29-14.325v35.82Z" transform="translate(-135.667 -272.199)" fill="#2d77af"/>
      </g>
    </g>
  </g>
</svg>
