<svg xmlns="http://www.w3.org/2000/svg" width="306.649" height="166.821" viewBox="0 0 306.649 166.821">
  <g id="Group_1382" data-name="Group 1382" transform="translate(0.5)">
    <g id="Group_1115" data-name="Group 1115" transform="translate(0 30.9)">
      <g id="Group_1108" data-name="Group 1108" transform="translate(0 0)">
        <path id="Path_3612" data-name="Path 3612" d="M241.753,41.635l-19.3-6.29L65.209,114v5.34l19.3,6.29,157.24-78.651Z" transform="translate(-65.209 -35.345)" fill="#94c6e5"/>
        <path id="Path_3613" data-name="Path 3613" d="M241.769,41.995l-19.3-6.29L65.209,113.374v5.34l19.3,6.29L241.769,47.335Z" transform="translate(-65.209 -34.723)" fill="#94c6e5" stroke="#000" stroke-linecap="round" stroke-linejoin="round" stroke-width="1"/>
        <path id="Path_3614" data-name="Path 3614" d="M241.671,38.765,84.514,116.687l-19.3-6.29" transform="translate(-65.209 -31.746)" fill="#94c6e5" stroke="#000" stroke-linecap="round" stroke-linejoin="round" stroke-width="0.5"/>
      </g>
      <line id="Line_47" data-name="Line 47" y2="5.34" transform="translate(19.305 84.94)" fill="none" stroke="#000" stroke-linecap="round" stroke-linejoin="round" stroke-width="0.5"/>
    </g>
    <g id="Group_1117" data-name="Group 1117" transform="translate(53.535 50.528)">
      <g id="Group_1108-2" data-name="Group 1108" transform="translate(0 0)">
        <path id="Path_3612-2" data-name="Path 3612" d="M241.753,41.635l-19.3-6.29L65.209,114v5.34l19.3,6.29,157.24-78.651Z" transform="translate(-65.209 -35.345)" fill="#94c6e5"/>
        <path id="Path_3613-2" data-name="Path 3613" d="M241.769,41.995l-19.3-6.29L65.209,113.374v5.34l19.3,6.29L241.769,47.335Z" transform="translate(-65.209 -34.723)" fill="#94c6e5" stroke="#000" stroke-linecap="round" stroke-linejoin="round" stroke-width="1"/>
        <path id="Path_3614-2" data-name="Path 3614" d="M241.671,38.765,84.514,116.687l-19.3-6.29" transform="translate(-65.209 -31.746)" fill="#94c6e5" stroke="#000" stroke-linecap="round" stroke-linejoin="round" stroke-width="0.5"/>
      </g>
      <line id="Line_47-2" data-name="Line 47" y2="5.34" transform="translate(19.305 84.94)" fill="none" stroke="#000" stroke-linecap="round" stroke-linejoin="round" stroke-width="0.5"/>
    </g>
    <g id="Group_1116" data-name="Group 1116" transform="translate(69.867 55.986)">
      <g id="Group_1108-3" data-name="Group 1108" transform="translate(0 0)">
        <path id="Path_3612-3" data-name="Path 3612" d="M241.753,41.635l-19.3-6.29L65.209,114v5.34l19.3,6.29,157.24-78.651Z" transform="translate(-65.209 -35.345)" fill="#94c6e5"/>
        <path id="Path_3613-3" data-name="Path 3613" d="M241.769,41.995l-19.3-6.29L65.209,113.374v5.34l19.3,6.29L241.769,47.335Z" transform="translate(-65.209 -34.723)" fill="#94c6e5" stroke="#000" stroke-linecap="round" stroke-linejoin="round" stroke-width="1"/>
        <path id="Path_3614-3" data-name="Path 3614" d="M241.671,38.765,84.514,116.687l-19.3-6.29" transform="translate(-65.209 -31.746)" fill="#94c6e5" stroke="#000" stroke-linecap="round" stroke-linejoin="round" stroke-width="0.5"/>
      </g>
      <line id="Line_47-3" data-name="Line 47" y2="5.34" transform="translate(19.305 84.94)" fill="none" stroke="#000" stroke-linecap="round" stroke-linejoin="round" stroke-width="0.5"/>
    </g>
    <g id="Group_1114" data-name="Group 1114" transform="translate(129.088 76.04)">
      <g id="Group_1108-4" data-name="Group 1108" transform="translate(0 0)">
        <path id="Path_3612-4" data-name="Path 3612" d="M241.753,41.635l-19.3-6.29L65.209,114v5.34l19.3,6.29,157.24-78.651Z" transform="translate(-65.209 -35.345)" fill="#94c6e5"/>
        <path id="Path_3613-4" data-name="Path 3613" d="M241.769,41.995l-19.3-6.29L65.209,113.374v5.34l19.3,6.29L241.769,47.335Z" transform="translate(-65.209 -34.723)" fill="#94c6e5" stroke="#000" stroke-linecap="round" stroke-linejoin="round" stroke-width="1"/>
        <path id="Path_3614-4" data-name="Path 3614" d="M241.671,38.765,84.514,116.687l-19.3-6.29" transform="translate(-65.209 -31.746)" fill="#94c6e5" stroke="#000" stroke-linecap="round" stroke-linejoin="round" stroke-width="0.5"/>
      </g>
      <line id="Line_47-4" data-name="Line 47" y2="5.34" transform="translate(19.305 84.94)" fill="none" stroke="#000" stroke-linecap="round" stroke-linejoin="round" stroke-width="0.5"/>
    </g>
    <line id="Line_41" data-name="Line 41" y2="5.34" transform="translate(19.305 115.661)" fill="none" stroke="#000" stroke-linecap="round" stroke-linejoin="round" stroke-width="0.5"/>
    <path id="Path_3596" data-name="Path 3596" d="M25.666,83.538,50.03,91.584,54,106.686l35.464,12.129L94,117.039l1.476-9.518,30.141,10.04,3.994,15.185,19.271,6.573,7.006-3.683V108.347L7.52,59.053.514,62.735v25.38l19.279,6.493,4.491-2.145Z" transform="translate(-0.487 21.368)" fill="#94c6e5"/>
    <path id="Path_3597" data-name="Path 3597" d="M25.666,83.538,50.03,91.584,54,106.686l35.464,12.129L94,117.039l1.476-9.518,30.141,10.04,3.994,15.185,19.271,6.573,7.006-3.683V108.347L7.52,59.053.514,62.735v25.38l19.279,6.493,4.491-2.145,1.382-8.925" transform="translate(-0.487 21.368)" fill="#94c6e5" stroke="#000" stroke-linecap="round" stroke-linejoin="round" stroke-width="1"/>
    <path id="Path_3598" data-name="Path 3598" d="M.514,60.9l148.367,49.295v27.291" transform="translate(-0.487 23.203)" fill="none" stroke="#000" stroke-linecap="round" stroke-linejoin="round" stroke-width="0.5"/>
    <path id="Path_3599" data-name="Path 3599" d="M38.1,44.113V69.493L186.468,120.7l7-3.683V89.725L45.108,40.431Z" transform="translate(36.91 2.841)" fill="#94c6e5"/>
    <path id="Path_3600" data-name="Path 3600" d="M38.1,44.113V69.493L186.468,120.7l7-3.683V89.725L45.108,40.431Z" transform="translate(36.91 2.841)" fill="#94c6e5" stroke="#000" stroke-linecap="round" stroke-linejoin="round" stroke-width="1"/>
    <path id="Path_3601" data-name="Path 3601" d="M38.1,42.277,186.468,91.571v27.291" transform="translate(36.91 4.678)" fill="#94c6e5" stroke="#000" stroke-linecap="round" stroke-linejoin="round" stroke-width="0.5"/>
    <path id="Path_3602" data-name="Path 3602" d="M75.69,25.492V50.871l148.367,51.206,7-3.683V71.1L82.7,21.809Z" transform="translate(74.307 -15.687)" fill="#94c6e5"/>
    <path id="Path_3606" data-name="Path 3606" d="M113.277,6.87v25.38L261.644,83.455l7-3.683V52.482L120.284,3.187Z" transform="translate(36.72 2.935)" fill="#94c6e5" stroke="#000" stroke-linecap="round" stroke-linejoin="round" stroke-width="1"/>
    <path id="Path_3607" data-name="Path 3607" d="M113.277,5.033,261.644,54.328V81.619" transform="translate(36.72 4.772)" fill="#94c6e5" stroke="#000" stroke-linecap="round" stroke-linejoin="round" stroke-width="0.5"/>
    <line id="Line_43" data-name="Line 43" y2="5.34" transform="translate(19.305 84.942)" fill="none" stroke="#000" stroke-linecap="round" stroke-linejoin="round" stroke-width="0.5"/>
    <line id="Line_44" data-name="Line 44" y2="5.34" transform="translate(51.577 95.669)" fill="none" stroke="#000" stroke-linecap="round" stroke-linejoin="round" stroke-width="0.5"/>
    <line id="Line_45" data-name="Line 45" y2="5.34" transform="translate(83.849 106.395)" fill="none" stroke="#000" stroke-linecap="round" stroke-linejoin="round" stroke-width="0.5"/>
    <line id="Line_46" data-name="Line 46" y2="5.34" transform="translate(116.121 117.122)" fill="none" stroke="#000" stroke-linecap="round" stroke-linejoin="round" stroke-width="0.5"/>
    <g id="Group_1109" data-name="Group 1109" transform="translate(129.088 42.908)">
      <g id="Group_1108-5" data-name="Group 1108" transform="translate(0 0)">
        <path id="Path_3612-5" data-name="Path 3612" d="M241.753,41.635l-19.3-6.29L65.209,114v5.34l19.3,6.29,157.24-78.651Z" transform="translate(-65.209 -35.345)" fill="#94c6e5"/>
        <path id="Path_3613-5" data-name="Path 3613" d="M241.769,41.995l-19.3-6.29L65.209,113.374v5.34l19.3,6.29L241.769,47.335Z" transform="translate(-65.209 -34.723)" fill="#94c6e5" stroke="#000" stroke-linecap="round" stroke-linejoin="round" stroke-width="1"/>
        <path id="Path_3614-5" data-name="Path 3614" d="M241.671,38.765,84.514,116.687l-19.3-6.29" transform="translate(-65.209 -31.746)" fill="#94c6e5" stroke="#000" stroke-linecap="round" stroke-linejoin="round" stroke-width="0.5"/>
      </g>
      <line id="Line_47-5" data-name="Line 47" y2="5.34" transform="translate(19.305 84.94)" fill="none" stroke="#000" stroke-linecap="round" stroke-linejoin="round" stroke-width="0.5"/>
    </g>
    <g id="Group_1110" data-name="Group 1110" transform="translate(96.816 32.181)">
      <g id="Group_1108-6" data-name="Group 1108" transform="translate(0 0)">
        <path id="Path_3612-6" data-name="Path 3612" d="M241.753,41.635l-19.3-6.29L65.209,114v5.34l19.3,6.29,157.24-78.651Z" transform="translate(-65.209 -35.345)" fill="#94c6e5"/>
        <path id="Path_3613-6" data-name="Path 3613" d="M241.769,41.995l-19.3-6.29L65.209,113.374v5.34l19.3,6.29L241.769,47.335Z" transform="translate(-65.209 -34.723)" fill="#94c6e5" stroke="#000" stroke-linecap="round" stroke-linejoin="round" stroke-width="1"/>
        <path id="Path_3614-6" data-name="Path 3614" d="M241.671,38.765,84.514,116.687l-19.3-6.29" transform="translate(-65.209 -31.746)" fill="#94c6e5" stroke="#000" stroke-linecap="round" stroke-linejoin="round" stroke-width="0.5"/>
      </g>
      <line id="Line_47-6" data-name="Line 47" y2="5.34" transform="translate(19.305 84.94)" fill="none" stroke="#000" stroke-linecap="round" stroke-linejoin="round" stroke-width="0.5"/>
    </g>
    <g id="Group_1111" data-name="Group 1111" transform="translate(64.417 21.733)">
      <g id="Group_1108-7" data-name="Group 1108" transform="translate(0 0)">
        <path id="Path_3612-7" data-name="Path 3612" d="M241.753,41.635l-19.3-6.29L65.209,114v5.34l19.3,6.29,157.24-78.651Z" transform="translate(-65.209 -35.345)" fill="#94c6e5"/>
        <path id="Path_3613-7" data-name="Path 3613" d="M241.769,41.995l-19.3-6.29L65.209,113.374v5.34l19.3,6.29L241.769,47.335Z" transform="translate(-65.209 -34.723)" fill="#94c6e5" stroke="#000" stroke-linecap="round" stroke-linejoin="round" stroke-width="1"/>
        <path id="Path_3614-7" data-name="Path 3614" d="M241.671,38.765,84.514,116.687l-19.3-6.29" transform="translate(-65.209 -31.746)" fill="#94c6e5" stroke="#000" stroke-linecap="round" stroke-linejoin="round" stroke-width="0.5"/>
      </g>
      <line id="Line_47-7" data-name="Line 47" y2="5.34" transform="translate(19.305 84.94)" fill="none" stroke="#000" stroke-linecap="round" stroke-linejoin="round" stroke-width="0.5"/>
    </g>
    <g id="Group_1112" data-name="Group 1112" transform="translate(32.272 10.82)">
      <g id="Group_1108-8" data-name="Group 1108" transform="translate(0 0)">
        <path id="Path_3612-8" data-name="Path 3612" d="M241.753,41.635l-19.3-6.29L65.209,114v5.34l19.3,6.29,157.24-78.651Z" transform="translate(-65.209 -35.345)" fill="#94c6e5"/>
        <path id="Path_3613-8" data-name="Path 3613" d="M241.769,41.995l-19.3-6.29L65.209,113.374v5.34l19.3,6.29L241.769,47.335Z" transform="translate(-65.209 -34.723)" fill="#94c6e5" stroke="#000" stroke-linecap="round" stroke-linejoin="round" stroke-width="1"/>
        <path id="Path_3614-8" data-name="Path 3614" d="M241.671,38.765,84.514,116.687l-19.3-6.29" transform="translate(-65.209 -31.746)" fill="#94c6e5" stroke="#000" stroke-linecap="round" stroke-linejoin="round" stroke-width="0.5"/>
      </g>
      <line id="Line_47-8" data-name="Line 47" y2="5.34" transform="translate(19.305 84.94)" fill="none" stroke="#000" stroke-linecap="round" stroke-linejoin="round" stroke-width="0.5"/>
    </g>
    <g id="Group_1113" data-name="Group 1113" transform="translate(0 0)">
      <g id="Group_1108-9" data-name="Group 1108" transform="translate(0 0)">
        <path id="Path_3612-9" data-name="Path 3612" d="M241.753,41.635l-19.3-6.29L65.209,114v5.34l19.3,6.29,157.24-78.651Z" transform="translate(-65.209 -35.345)" fill="#94c6e5"/>
        <path id="Path_3613-9" data-name="Path 3613" d="M241.769,41.995l-19.3-6.29L65.209,113.374v5.34l19.3,6.29L241.769,47.335Z" transform="translate(-65.209 -34.723)" fill="#94c6e5" stroke="#000" stroke-linecap="round" stroke-linejoin="round" stroke-width="1"/>
        <path id="Path_3614-9" data-name="Path 3614" d="M241.671,38.765,84.514,116.687l-19.3-6.29" transform="translate(-65.209 -31.746)" fill="#94c6e5" stroke="#000" stroke-linecap="round" stroke-linejoin="round" stroke-width="0.5"/>
      </g>
      <line id="Line_47-9" data-name="Line 47" y2="5.34" transform="translate(19.305 84.94)" fill="none" stroke="#000" stroke-linecap="round" stroke-linejoin="round" stroke-width="0.5"/>
    </g>
    <line id="Line_48" data-name="Line 48" y2="5.34" transform="translate(148.393 160.688)" fill="none" stroke="#000" stroke-linecap="round" stroke-linejoin="round" stroke-width="0.5"/>
    <line id="Line_49" data-name="Line 49" x2="4.074" y2="1.285" transform="translate(21.104 103.621)" fill="#fff"/>
    <line id="Line_50" data-name="Line 50" x2="4.074" y2="1.285" transform="translate(21.104 103.621)" fill="none" stroke="#000" stroke-linecap="round" stroke-linejoin="round" stroke-width="1"/>
    <line id="Line_51" data-name="Line 51" y1="12.656" x2="1.799" transform="translate(19.305 103.622)" fill="none" stroke="#000" stroke-linecap="round" stroke-linejoin="round" stroke-width="0.5"/>
    <line id="Line_52" data-name="Line 52" x2="4.217" y2="1.321" transform="translate(90.769 127.569)" fill="#fff"/>
    <line id="Line_53" data-name="Line 53" x2="4.217" y2="1.321" transform="translate(90.769 127.569)" fill="none" stroke="#000" stroke-linecap="round" stroke-linejoin="round" stroke-width="1"/>
    <line id="Line_54" data-name="Line 54" y1="12.614" x2="1.789" transform="translate(88.979 127.569)" fill="none" stroke="#000" stroke-linecap="round" stroke-linejoin="round" stroke-width="0.5"/>
  </g>
</svg>
