<?xml version="1.0" encoding="UTF-8" standalone="no"?>
<!-- Created with Inkscape (http://www.inkscape.org/) -->

<svg
   xmlns:dc="http://purl.org/dc/elements/1.1/"
   xmlns:cc="http://creativecommons.org/ns#"
   xmlns:rdf="http://www.w3.org/1999/02/22-rdf-syntax-ns#"
   xmlns:svg="http://www.w3.org/2000/svg"
   xmlns="http://www.w3.org/2000/svg"
   xmlns:sodipodi="http://sodipodi.sourceforge.net/DTD/sodipodi-0.dtd"
   xmlns:inkscape="http://www.inkscape.org/namespaces/inkscape"
   width="500mm"
   height="76.249596mm"
   viewBox="0 0 500 76.249596"
   version="1.1"
   id="svg8"
   inkscape:version="0.92.2 (5c3e80d, 2017-08-06)"
   sodipodi:docname="YASKAWA-logo-blue.svg">
  <defs
     id="defs2">
    <clipPath
       id="clipPath3715"
       clipPathUnits="userSpaceOnUse">
      <path
         inkscape:connector-curvature="0"
         id="path3713"
         d="M 0,59.53 H 300.47 V 0 H 0 Z" />
    </clipPath>
  </defs>
  <sodipodi:namedview
     id="base"
     pagecolor="#ffffff"
     bordercolor="#666666"
     borderopacity="1.0"
     inkscape:pageopacity="0.0"
     inkscape:pageshadow="2"
     inkscape:zoom="0.75353333"
     inkscape:cx="944.88189"
     inkscape:cy="83.144096"
     inkscape:document-units="mm"
     inkscape:current-layer="layer1"
     showgrid="false"
     inkscape:window-width="1920"
     inkscape:window-height="1017"
     inkscape:window-x="-8"
     inkscape:window-y="-8"
     inkscape:window-maximized="1"
     inkscape:showpageshadow="false"
     showborder="false"
     fit-margin-top="0"
     fit-margin-left="0"
     fit-margin-right="0"
     fit-margin-bottom="0" />
  <metadata
     id="metadata5">
    <rdf:RDF>
      <cc:Work
         rdf:about="">
        <dc:format>image/svg+xml</dc:format>
        <dc:type
           rdf:resource="http://purl.org/dc/dcmitype/StillImage" />
        <dc:title></dc:title>
      </cc:Work>
    </rdf:RDF>
  </metadata>
  <g
     inkscape:label="Layer 1"
     inkscape:groupmode="layer"
     id="layer1"
     transform="translate(150.11824,-52.100003)">
    <g
       clip-path="url(#clipPath3715)"
       id="g3711"
       transform="matrix(1.7638937,0,0,-1.7638937,-165.11592,142.72992)">
      <g
         transform="translate(133.9375,29.7607)"
         id="g3717">
        <path
           inkscape:connector-curvature="0"
           id="path3719"
           style="fill:#005bac;fill-opacity:1;fill-rule:nonzero;stroke:none"
           d="M 0,0 C 4.253,-4.959 9.565,-14.172 12.755,-21.257 H 25.158 C 21.615,-13.109 14.525,-2.303 10.629,1.948 14.174,5.49 20.905,14.176 24.802,21.262 H 12.401 C 8.149,13.821 2.479,6.73 0,4.25 V 21.257 H -10.63 V -21.257 H 0 Z" />
      </g>
      <g
         transform="translate(36.1406,51.0254)"
         id="g3721">
        <path
           inkscape:connector-curvature="0"
           id="path3723"
           style="fill:#005bac;fill-opacity:1;fill-rule:nonzero;stroke:none"
           d="m 0,0 c -1.853,-5.56 -4.619,-11.421 -7.795,-16.894 -3.177,5.473 -5.94,11.334 -7.794,16.894 h -12.049 c 3.19,-8.858 9.569,-19.487 14.529,-25.513 V -42.527 H -2.48 v 17.014 C 2.48,-19.487 8.858,-8.858 12.048,0 Z" />
      </g>
      <g
         transform="translate(58.5996,24.0967)"
         id="g3725">
        <path
           inkscape:connector-curvature="0"
           id="path3727"
           style="fill:#005bac;fill-opacity:1;fill-rule:nonzero;stroke:none"
           d="M 0,0 C 1.581,5.477 3.363,11.08 5.18,16.184 6.997,11.08 8.778,5.477 10.359,0 Z M -0.487,26.929 C -5.804,16.3 -12.182,-1.773 -15.371,-15.592 h 11.339 c 0.49,2.207 1.065,4.594 1.707,7.087 h 15.01 c 0.64,-2.493 1.218,-4.88 1.708,-7.087 H 25.731 C 22.541,-1.773 16.164,16.3 10.849,26.929 Z" />
      </g>
      <g
         transform="translate(110.1943,31.1816)"
         id="g3729">
        <path
           inkscape:connector-curvature="0"
           id="path3731"
           style="fill:#005bac;fill-opacity:1;fill-rule:nonzero;stroke:none"
           d="m 0,0 c -4.96,2.127 -7.44,3.192 -9.921,4.254 -2.481,1.062 -3.544,1.784 -3.544,3.544 0,2.139 0.707,2.983 2.481,3.187 3.189,0.368 9.921,0.017 16.298,-1.415 l 0.003,9.389 c -4.254,0.898 -9.922,1.24 -14.173,1.24 -2.126,0 -4.976,-0.197 -7.086,-0.53 -5.67,-0.899 -8.505,-4.43 -8.505,-11.517 0,-4.963 1.773,-8.861 6.732,-10.983 4.257,-1.824 7.442,-3.191 9.922,-4.252 2.48,-1.064 3.542,-1.771 3.542,-3.545 0,-2.128 -0.709,-2.979 -2.479,-3.19 -2.836,-0.335 -9.88,-0.01 -16.299,1.418 v -9.39 c 4.252,-0.886 9.919,-1.239 14.173,-1.239 2.125,0 4.975,0.196 7.085,0.531 5.669,0.9 8.503,4.251 8.503,11.517 C 6.732,-5.312 4.961,-2.126 0,0" />
      </g>
      <g
         transform="translate(171.626,24.0908)"
         id="g3733">
        <path
           inkscape:connector-curvature="0"
           id="path3735"
           style="fill:#005bac;fill-opacity:1;fill-rule:nonzero;stroke:none"
           d="M 0,0 C 1.584,5.476 3.364,11.083 5.181,16.189 7.001,11.083 8.78,5.476 10.364,0 Z M -0.487,26.935 C -5.803,16.306 -12.18,-1.768 -15.37,-15.586 h 11.339 c 0.49,2.204 1.067,4.59 1.707,7.083 h 15.012 c 0.641,-2.493 1.216,-4.879 1.707,-7.083 H 25.733 C 22.544,-1.768 16.166,16.306 10.852,26.935 Z" />
      </g>
      <g
         transform="translate(242.3613,51.0254)"
         id="g3737">
        <path
           inkscape:connector-curvature="0"
           id="path3739"
           style="fill:#005bac;fill-opacity:1;fill-rule:nonzero;stroke:none"
           d="M 0,0 C -1.615,-8.771 -3.983,-19.343 -6.416,-28.782 -8.963,-19.243 -11.49,-8.563 -13.11,0 h -10.277 c -1.618,-8.563 -4.147,-19.243 -6.692,-28.782 -2.436,9.439 -4.802,20.011 -6.418,28.782 h -11.338 c 2.833,-12.754 8.149,-31.181 12.047,-42.521 h 11.691 c 1.784,6.337 3.896,14.778 5.848,23.279 1.952,-8.501 4.066,-16.942 5.848,-23.279 H -0.709 C 3.188,-31.181 8.505,-12.754 11.338,0 Z" />
      </g>
      <g
         transform="translate(266.2344,24.0967)"
         id="g3741">
        <path
           inkscape:connector-curvature="0"
           id="path3743"
           style="fill:#005bac;fill-opacity:1;fill-rule:nonzero;stroke:none"
           d="M 0,0 C 1.584,5.477 3.364,11.08 5.182,16.184 6.997,11.08 8.778,5.477 10.361,0 Z M 14.394,-15.592 H 25.732 C 22.545,-1.773 16.165,16.3 10.852,26.929 H -0.487 C -5.803,16.3 -12.181,-1.773 -15.368,-15.592 h 11.336 c 0.492,2.207 1.068,4.594 1.709,7.087 h 15.01 c 0.641,-2.493 1.217,-4.88 1.707,-7.087" />
      </g>
    </g>
  </g>
</svg>
