<svg id="outline-settings-24px" xmlns="http://www.w3.org/2000/svg" width="26" height="26" viewBox="0 0 26 26">
  <g id="Bounding_Boxes">
    <path id="Path_3064" data-name="Path 3064" d="M0,0H26V26H0Z" fill="none"/>
  </g>
  <g id="Outline" transform="translate(2.46 2.167)">
    <g id="Group_768" data-name="Group 768">
      <path id="Path_3065" data-name="Path 3065" d="M20.98,13.972a8.5,8.5,0,0,0,.076-1.069,8.5,8.5,0,0,0-.076-1.069l2.3-1.8a.55.55,0,0,0,.131-.7L21.231,5.565a.545.545,0,0,0-.48-.273.509.509,0,0,0-.185.033l-2.715,1.09a7.966,7.966,0,0,0-1.843-1.069l-.414-2.889A.532.532,0,0,0,15.059,2H10.7a.532.532,0,0,0-.534.458L9.75,5.347A8.377,8.377,0,0,0,7.907,6.416L5.192,5.325A.617.617,0,0,0,5,5.293a.54.54,0,0,0-.469.273L2.346,9.338a.538.538,0,0,0,.131.7l2.3,1.8A8.647,8.647,0,0,0,4.7,12.9a8.647,8.647,0,0,0,.076,1.069l-2.3,1.8a.55.55,0,0,0-.131.7l2.181,3.773a.545.545,0,0,0,.48.273.509.509,0,0,0,.185-.033l2.715-1.09A7.966,7.966,0,0,0,9.75,20.459l.414,2.889a.532.532,0,0,0,.534.458h4.361a.532.532,0,0,0,.534-.458l.414-2.889a8.377,8.377,0,0,0,1.843-1.069l2.715,1.09a.617.617,0,0,0,.2.033.54.54,0,0,0,.469-.273l2.181-3.773a.55.55,0,0,0-.131-.7Zm-2.159-1.864a5.826,5.826,0,0,1,.055.8c0,.229-.022.469-.055.8l-.153,1.232.97.763,1.178.916-.763,1.319-1.385-.556-1.134-.458-.981.741a6.386,6.386,0,0,1-1.363.8l-1.156.469-.174,1.232-.218,1.472H12.116l-.207-1.472-.174-1.232-1.156-.469a6.187,6.187,0,0,1-1.341-.774l-.992-.763-1.156.469L5.7,17.941l-.763-1.319,1.178-.916.97-.763L6.937,13.71c-.033-.338-.055-.589-.055-.807s.022-.469.055-.8l.153-1.232-.97-.763L4.941,9.2,5.7,7.877l1.385.556,1.134.458L9.2,8.149a6.386,6.386,0,0,1,1.363-.8l1.156-.469L11.9,5.653l.218-1.472h1.516l.207,1.472.174,1.232,1.156.469a6.186,6.186,0,0,1,1.341.774l.992.763,1.156-.469,1.385-.556.763,1.319-1.167.927-.97.763Z" transform="translate(-2.271 -2)" fill="#0277bd"/>
      <path id="Path_3066" data-name="Path 3066" d="M12.333,8a4.333,4.333,0,1,0,4.333,4.333A4.332,4.332,0,0,0,12.333,8Zm0,6.5A2.167,2.167,0,1,1,14.5,12.333,2.173,2.173,0,0,1,12.333,14.5Z" transform="translate(-1.725 -1.43)" fill="#0277bd"/>
    </g>
  </g>
</svg>
