<?xml version="1.0" encoding="UTF-8" standalone="no"?>
<svg
   width="48"
   height="48"
   viewBox="0 0 48 48"
   version="1.1"
   id="svg904"
   sodipodi:docname="RotateClockwise.svg"
   inkscape:version="1.1.1 (3bf5ae0, 2021-09-20)"
   xmlns:inkscape="http://www.inkscape.org/namespaces/inkscape"
   xmlns:sodipodi="http://sodipodi.sourceforge.net/DTD/sodipodi-0.dtd"
   xmlns="http://www.w3.org/2000/svg"
   xmlns:svg="http://www.w3.org/2000/svg">
  <defs
     id="defs908" />
  <sodipodi:namedview
     id="namedview906"
     pagecolor="#ffffff"
     bordercolor="#666666"
     borderopacity="1.0"
     inkscape:pageshadow="2"
     inkscape:pageopacity="0.0"
     inkscape:pagecheckerboard="0"
     showgrid="false"
     inkscape:zoom="14.729167"
     inkscape:cx="13.85007"
     inkscape:cy="10.489392"
     inkscape:window-width="1920"
     inkscape:window-height="933"
     inkscape:window-x="0"
     inkscape:window-y="0"
     inkscape:window-maximized="1"
     inkscape:current-layer="svg904" />
  <g
     id="Group_1656"
     data-name="Group 1656"
     transform="matrix(0.99641109,0,0,0.99262457,-210.24271,-1159.213)"
     style="fill:#ffffff;fill-opacity:1">
    <g
       id="Group_1654"
       data-name="Group 1654"
       transform="matrix(1.9212909,0,0,1.8116382,-115.61052,-966.10136)"
       style="fill:#ffffff;fill-opacity:1">
      <text
         id="_90"
         data-name="90"
         fill="#ffffff"
         font-size="14px"
         font-family="Roboto-Bold, Roboto"
         font-weight="700"
         x="172.35751"
         y="1191.9949"
         style="fill:#ffffff;fill-opacity:1"><tspan
           x="172.35751"
           y="1191.9949"
           id="tspan893"
           style="fill:#ffffff;fill-opacity:1">90</tspan></text>
      <path
         id="sync_FILL0_wght400_GRAD0_opsz48"
         d="m 0.269,0 v 2.308 h 5 L 4.692,2.77 A 12.489,12.489 0 0 0 1.115,7.038 11.689,11.689 0 0 0 0,12.192 12.014,12.014 0 0 0 2.4,19.519 12.214,12.214 0 0 0 8.731,24 V 21.615 A 9.792,9.792 0 0 1 4.077,17.9 9.926,9.926 0 0 1 2.308,12.188 9.228,9.228 0 0 1 3.208,7.976 9.868,9.868 0 0 1 5.65,4.876 L 6.804,4.068 V 8.846 H 9.115 V 0 Z"
         transform="rotate(90,-500.721,694.721)"
         fill="#ffffff"
         style="fill:#ffffff;fill-opacity:1" />
      <g
         id="Ellipse_176"
         data-name="Ellipse 176"
         transform="translate(191,1178)"
         fill="none"
         stroke="#ffffff"
         stroke-width="1"
         style="fill:#ffffff;fill-opacity:1">
        <circle
           cx="2"
           cy="2"
           r="2"
           stroke="none"
           id="circle897"
           style="fill:#ffffff;fill-opacity:1" />
        <circle
           cx="2"
           cy="2"
           r="1.5"
           fill="none"
           id="circle899"
           style="fill:#ffffff;fill-opacity:1" />
      </g>
    </g>
  </g>
</svg>
