<?xml version="1.0" encoding="UTF-8" standalone="no"?>
<svg
   width="300"
   height="180"
   viewBox="0 0 300 179.99999"
   version="1.1"
   id="svg58"
   sodipodi:docname="Infeed_UF_Defintion.svg"
   inkscape:version="1.2.1 (9c6d41e410, 2022-07-14)"
   xmlns:inkscape="http://www.inkscape.org/namespaces/inkscape"
   xmlns:sodipodi="http://sodipodi.sourceforge.net/DTD/sodipodi-0.dtd"
   xmlns="http://www.w3.org/2000/svg"
   xmlns:svg="http://www.w3.org/2000/svg">
  <defs
     id="defs62" />
  <sodipodi:namedview
     id="namedview60"
     pagecolor="#ffffff"
     bordercolor="#000000"
     borderopacity="0.25"
     inkscape:showpageshadow="2"
     inkscape:pageopacity="0.0"
     inkscape:pagecheckerboard="0"
     inkscape:deskcolor="#d1d1d1"
     showgrid="false"
     inkscape:zoom="2.1029288"
     inkscape:cx="269.62396"
     inkscape:cy="108.89575"
     inkscape:window-width="1920"
     inkscape:window-height="1017"
     inkscape:window-x="1912"
     inkscape:window-y="-8"
     inkscape:window-maximized="1"
     inkscape:current-layer="svg58" />
  <path
     id="Path_4009"
     data-name="Path 4009"
     d="M 179.9862,35.11997 12.401107,121.03744 11.92558,95.564279 179.9852,12.49997 Z"
     fill="#ffffff"
     stroke="#1a1818"
     stroke-linecap="round"
     stroke-linejoin="round"
     stroke-width="1"
     sodipodi:nodetypes="ccccc" />
  <g
     id="Group_1348"
     data-name="Group 1348"
     transform="translate(-3986.1318,-842.71903)">
    <path
       id="Path_4010"
       data-name="Path 4010"
       d="m 4267.917,903.808 -101.5,-34.046 c -3.915,-1.251 -8.4,1.856 -10.027,6.938 -1.627,5.082 0.234,10.215 4.149,11.465 l 101.5,34.046"
       fill="#ffffff"
       stroke="#1a1818"
       stroke-linecap="round"
       stroke-linejoin="round"
       stroke-width="1" />
    <ellipse
       id="Ellipse_145"
       data-name="Ellipse 145"
       cx="9.6599998"
       cy="7.441"
       rx="9.6599998"
       ry="7.441"
       transform="matrix(0.304,-0.953,0.953,0.304,4254.828,919.925)"
       fill="#ffffff"
       stroke="#1a1818"
       stroke-linecap="round"
       stroke-linejoin="round"
       stroke-width="1" />
  </g>
  <g
     id="Group_1349"
     data-name="Group 1349"
     transform="translate(-3986.1318,-842.71903)">
    <path
       id="Path_4011"
       data-name="Path 4011"
       d="m 4252.669,911.06 -101.5,-34.046 c -3.915,-1.251 -8.4,1.856 -10.027,6.937 -1.627,5.081 0.235,10.216 4.149,11.466 l 101.5,34.046"
       fill="#ffffff"
       stroke="#1a1818"
       stroke-linecap="round"
       stroke-linejoin="round"
       stroke-width="1" />
    <ellipse
       id="Ellipse_146"
       data-name="Ellipse 146"
       cx="9.6599998"
       cy="7.441"
       rx="9.6599998"
       ry="7.441"
       transform="matrix(0.304,-0.953,0.953,0.304,4239.58,927.177)"
       fill="#ffffff"
       stroke="#1a1818"
       stroke-linecap="round"
       stroke-linejoin="round"
       stroke-width="1" />
  </g>
  <g
     id="Group_1350"
     data-name="Group 1350"
     transform="translate(-3986.1318,-842.71903)">
    <path
       id="Path_4012"
       data-name="Path 4012"
       d="m 4237.421,918.312 -101.5,-34.046 c -3.914,-1.251 -8.4,1.855 -10.027,6.937 -1.627,5.082 0.235,10.216 4.149,11.466 l 101.5,34.046"
       fill="#ffffff"
       stroke="#1a1818"
       stroke-linecap="round"
       stroke-linejoin="round"
       stroke-width="1" />
    <ellipse
       id="Ellipse_147"
       data-name="Ellipse 147"
       cx="9.6599998"
       cy="7.441"
       rx="9.6599998"
       ry="7.441"
       transform="matrix(0.304,-0.953,0.953,0.304,4224.332,934.429)"
       fill="#ffffff"
       stroke="#1a1818"
       stroke-linecap="round"
       stroke-linejoin="round"
       stroke-width="1" />
  </g>
  <g
     id="Group_1351"
     data-name="Group 1351"
     transform="translate(-3986.1318,-842.71903)">
    <path
       id="Path_4013"
       data-name="Path 4013"
       d="m 4222.173,925.564 -101.5,-34.046 c -3.915,-1.251 -8.4,1.855 -10.027,6.937 -1.627,5.082 0.234,10.215 4.149,11.466 l 101.5,34.046"
       fill="#ffffff"
       stroke="#1a1818"
       stroke-linecap="round"
       stroke-linejoin="round"
       stroke-width="1" />
    <ellipse
       id="Ellipse_148"
       data-name="Ellipse 148"
       cx="9.6599998"
       cy="7.441"
       rx="9.6599998"
       ry="7.441"
       transform="matrix(0.304,-0.953,0.953,0.304,4209.084,941.681)"
       fill="#ffffff"
       stroke="#1a1818"
       stroke-linecap="round"
       stroke-linejoin="round"
       stroke-width="1" />
  </g>
  <g
     id="Group_1352"
     data-name="Group 1352"
     transform="translate(-3986.1318,-842.71903)">
    <path
       id="Path_4014"
       data-name="Path 4014"
       d="m 4206.926,932.815 -101.5,-34.046 c -3.915,-1.25 -8.4,1.856 -10.027,6.938 -1.627,5.082 0.234,10.215 4.149,11.466 l 101.5,34.046"
       fill="#ffffff"
       stroke="#1a1818"
       stroke-linecap="round"
       stroke-linejoin="round"
       stroke-width="1" />
    <ellipse
       id="Ellipse_149"
       data-name="Ellipse 149"
       cx="9.6599998"
       cy="7.441"
       rx="9.6599998"
       ry="7.441"
       transform="matrix(0.304,-0.953,0.953,0.304,4193.837,948.933)"
       fill="#ffffff"
       stroke="#1a1818"
       stroke-linecap="round"
       stroke-linejoin="round"
       stroke-width="1" />
  </g>
  <g
     id="Group_1353"
     data-name="Group 1353"
     transform="translate(-3986.1318,-842.71903)">
    <path
       id="Path_4015"
       data-name="Path 4015"
       d="m 4191.678,940.067 -101.5,-34.046 c -3.915,-1.25 -8.4,1.856 -10.027,6.938 -1.627,5.082 0.235,10.215 4.149,11.466 l 101.5,34.046"
       fill="#ffffff"
       stroke="#1a1818"
       stroke-linecap="round"
       stroke-linejoin="round"
       stroke-width="1" />
    <ellipse
       id="Ellipse_150"
       data-name="Ellipse 150"
       cx="9.6599998"
       cy="7.441"
       rx="9.6599998"
       ry="7.441"
       transform="matrix(0.304,-0.953,0.953,0.304,4178.589,956.185)"
       fill="#ffffff"
       stroke="#1a1818"
       stroke-linecap="round"
       stroke-linejoin="round"
       stroke-width="1" />
  </g>
  <g
     id="Group_1354"
     data-name="Group 1354"
     transform="translate(-3986.1318,-842.71903)">
    <path
       id="Path_4016"
       data-name="Path 4016"
       d="m 4176.43,947.319 -101.5,-34.046 c -3.914,-1.25 -8.4,1.856 -10.027,6.938 -1.627,5.082 0.235,10.215 4.15,11.466 l 101.5,34.046"
       fill="#ffffff"
       stroke="#1a1818"
       stroke-linecap="round"
       stroke-linejoin="round"
       stroke-width="1" />
    <ellipse
       id="Ellipse_151"
       data-name="Ellipse 151"
       cx="9.6599998"
       cy="7.441"
       rx="9.6599998"
       ry="7.441"
       transform="matrix(0.304,-0.953,0.953,0.304,4163.341,963.437)"
       fill="#ffffff"
       stroke="#1a1818"
       stroke-linecap="round"
       stroke-linejoin="round"
       stroke-width="1" />
  </g>
  <g
     id="Group_1355"
     data-name="Group 1355"
     transform="translate(-3986.1318,-842.71903)">
    <path
       id="Path_4017"
       data-name="Path 4017"
       d="m 4161.182,954.571 -101.5,-34.046 c -3.915,-1.25 -8.4,1.856 -10.027,6.938 -1.627,5.082 0.234,10.215 4.149,11.465 l 101.5,34.046"
       fill="#ffffff"
       stroke="#1a1818"
       stroke-linecap="round"
       stroke-linejoin="round"
       stroke-width="1" />
    <ellipse
       id="Ellipse_152"
       data-name="Ellipse 152"
       cx="9.6599998"
       cy="7.441"
       rx="9.6599998"
       ry="7.441"
       transform="matrix(0.304,-0.953,0.953,0.304,4148.093,970.689)"
       fill="#ffffff"
       stroke="#1a1818"
       stroke-linecap="round"
       stroke-linejoin="round"
       stroke-width="1" />
  </g>
  <g
     id="Group_1356"
     data-name="Group 1356"
     transform="translate(-3986.1318,-842.71903)">
    <path
       id="Path_4018"
       data-name="Path 4018"
       d="m 4145.935,961.823 -101.5,-34.046 c -3.915,-1.25 -8.4,1.856 -10.027,6.938 -1.627,5.082 0.234,10.215 4.149,11.465 l 101.5,34.046"
       fill="#ffffff"
       stroke="#1a1818"
       stroke-linecap="round"
       stroke-linejoin="round"
       stroke-width="1" />
    <ellipse
       id="Ellipse_153"
       data-name="Ellipse 153"
       cx="9.6599998"
       cy="7.441"
       rx="9.6599998"
       ry="7.441"
       transform="matrix(0.304,-0.953,0.953,0.304,4132.846,977.941)"
       fill="#ffffff"
       stroke="#1a1818"
       stroke-linecap="round"
       stroke-linejoin="round"
       stroke-width="1" />
  </g>
  <g
     id="Group_1357"
     data-name="Group 1357"
     transform="translate(-3986.1318,-842.71903)">
    <path
       id="Path_4019"
       data-name="Path 4019"
       d="m 4130.687,969.075 -101.5,-34.046 c -3.915,-1.25 -8.4,1.856 -10.027,6.938 -1.627,5.082 0.235,10.215 4.149,11.465 l 101.5,34.046"
       fill="#ffffff"
       stroke="#1a1818"
       stroke-linecap="round"
       stroke-linejoin="round"
       stroke-width="1" />
    <ellipse
       id="Ellipse_154"
       data-name="Ellipse 154"
       cx="9.6599998"
       cy="7.441"
       rx="9.6599998"
       ry="7.441"
       transform="matrix(0.304,-0.953,0.953,0.304,4117.598,985.193)"
       fill="#ffffff"
       stroke="#1a1818"
       stroke-linecap="round"
       stroke-linejoin="round"
       stroke-width="1" />
  </g>
  <g
     id="Group_1358"
     data-name="Group 1358"
     transform="translate(-3986.1318,-842.71903)">
    <path
       id="Path_4020"
       data-name="Path 4020"
       d="m 4115.439,976.327 -101.5,-34.046 c -3.914,-1.25 -8.4,1.856 -10.027,6.938 -1.627,5.082 0.235,10.215 4.15,11.465 l 101.5,34.046"
       fill="#ffffff"
       stroke="#1a1818"
       stroke-linecap="round"
       stroke-linejoin="round"
       stroke-width="1" />
    <ellipse
       id="Ellipse_155"
       data-name="Ellipse 155"
       cx="9.6599998"
       cy="7.441"
       rx="9.6599998"
       ry="7.441"
       transform="matrix(0.304,-0.953,0.953,0.304,4102.35,992.445)"
       fill="#ffffff"
       stroke="#1a1818"
       stroke-linecap="round"
       stroke-linejoin="round"
       stroke-width="1" />
  </g>
  <g
     id="Group_1600"
     data-name="Group 1600"
     transform="translate(-3969.9638,-835.07603)">
    <g
       id="Group_1360"
       data-name="Group 1360">
      <path
         id="Path_4022"
         data-name="Path 4022"
         d="m 4087.44,918.943 v 52.976 l -58.954,-19.651 v -52.976 z"
         fill="#4a8eb7" />
      <path
         id="Path_4023"
         data-name="Path 4023"
         d="m 4028.485,899.084 68.957,-34.336 58.955,19.859 -68.957,34.336 -58.954,-19.651 z"
         fill="#7ebbdf" />
      <path
         id="Path_4024"
         data-name="Path 4024"
         d="m 4087.44,971.919 v -52.976 l 68.957,-34.336 v 54.64035 z"
         fill="#0c65a2"
         sodipodi:nodetypes="ccccc" />
      <path
         id="Path_4026"
         data-name="Path 4026"
         d="m 4097.442,864.749 -68.957,34.336 v 53.183 l 58.954,19.651 68.957,-32.90942 V 884.608 Z"
         fill="none"
         stroke="#1a1818"
         stroke-linecap="round"
         stroke-linejoin="round"
         stroke-width="0.5"
         sodipodi:nodetypes="ccccccc" />
    </g>
  </g>
  <path
     id="Path_4380"
     data-name="Path 4380"
     d="m 10.74871,83.169194 0.756559,38.201496 105.787931,38.18628 v -37.526 z"
     fill="#ffffff"
     stroke="#1a1818"
     stroke-linecap="round"
     stroke-linejoin="round"
     stroke-width="1"
     opacity="0.5"
     sodipodi:nodetypes="ccccc" />
  <path
     id="Path_4021"
     data-name="Path 4021"
     d="M 287.68245,77.882243 117.2452,159.51997 V 131.19364 L 287.20693,49.555915 Z"
     fill="#ffffff"
     stroke="#1a1818"
     stroke-linecap="round"
     stroke-linejoin="round"
     stroke-width="1"
     style="opacity:0.5"
     sodipodi:nodetypes="ccccc" />
  <path
     id="Path_4513"
     data-name="Path 4513"
     d="m 135.6252,52.18097 -10.11,-3.449 -11.933,5.855 -4.152,-1.572 -0.788,8.046 20.249,-1.015 -5.392,-1.87 z"
     fill="#ffffff" />
  <text
     xml:space="preserve"
     style="fill:#003d7b;fill-opacity:1"
     x="133.07761"
     y="164.88199"
     id="text376"><tspan
       id="tspan374"
       x="133.07761"
       y="164.88199"
       sodipodi:role="line">ORIGIN</tspan></text>
  <path
     style="opacity:1;fill:#aa0000;stroke:#808080;stroke-width:1;stroke-dasharray:4, 1;stroke-dashoffset:0"
     d="m 11.902107,101.63686 105.567053,35.42678 m 0.23777,-0.11888 84.64385,-40.182056"
     id="path719"
     sodipodi:nodetypes="cccc" />
  <ellipse
     style="fill:#000000"
     id="ellipse531-2"
     cx="201.72981"
     cy="97.039314"
     rx="2.0209908"
     ry="1.9021091" />
  <ellipse
     style="fill:#000000"
     id="ellipse659"
     cx="12.02099"
     cy="101.39909"
     rx="2.0209908"
     ry="1.9021091" />
  <g
     id="Group_1601"
     data-name="Group 1601"
     transform="translate(-3970.1318,-834.75503)">
    <path
       id="Path_4028"
       data-name="Path 4028"
       d="m 4115.979,957.875 -18.188,3.691 1.4,2.82 -12.548,6.248 a 1.6540234,1.6540234 0 0 0 1.473,2.962 l 12.55,-6.249 1.4,2.819 z"
       fill="#c4091e" />
    <path
       id="Path_4029"
       data-name="Path 4029"
       d="m 4087.906,970.547 -13.492,-4.5 1,-2.989 -18.525,-1.111 15.487,10.226 1,-2.989 13.492,4.5 a 1.653,1.653 0 0 0 1.046,-3.136 z"
       fill="#45a735" />
    <path
       id="Path_4030"
       data-name="Path 4030"
       d="m 4092.188,956.7 -4.8,-17.926 -4.8,17.926 h 3.15 v 15.412 a 1.654,1.654 0 0 0 3.307,0 V 956.7 Z"
       fill="#00496a" />
  </g>
  <ellipse
     style="fill:#000000"
     id="ellipse531-2-3"
     cx="117.23139"
     cy="136.82588"
     rx="2.0209908"
     ry="1.9021091" />
  <path
     style="opacity:1;fill:none;stroke:#003d7b;stroke-width:0.528143;stroke-dasharray:none;stroke-dashoffset:0;stroke-opacity:1"
     d="M 134.10606,155.71424 118.16443,138.29738"
     id="path2598" />
  <text
     xml:space="preserve"
     style="fill:#003d7b;fill-opacity:1"
     x="218.86084"
     y="125.59528"
     id="text3702"><tspan
       id="tspan3700"
       x="218.86084"
       y="125.59528"
       sodipodi:role="line">XX</tspan></text>
  <path
     style="opacity:1;fill:none;stroke:#003d7b;stroke-width:0.528143;stroke-dasharray:none;stroke-dashoffset:0;stroke-opacity:1"
     d="M 218.93824,115.83312 202.99661,98.416261"
     id="path3704" />
  <text
     xml:space="preserve"
     style="fill:#003d7b;fill-opacity:1"
     x="28.676603"
     y="143.91719"
     id="text3702-7"><tspan
       id="tspan3700-2"
       x="28.676603"
       y="143.91719"
       sodipodi:role="line">XY</tspan></text>
  <path
     style="fill:none;stroke:#003d7b;stroke-width:0.528143;stroke-dasharray:none;stroke-dashoffset:0;stroke-opacity:1"
     d="M 27.089652,132.51874 12.812368,102.73817"
     id="path3704-1"
     sodipodi:nodetypes="cc" />
</svg>
